<?xml version="1.0" standalone="no"?>
<!DOCTYPE svg PUBLIC "-//W3C//DTD SVG 1.1//EN" "http://www.w3.org/Graphics/SVG/1.1/DTD/svg11.dtd" >
<svg xmlns="http://www.w3.org/2000/svg">
<metadata>
Generated by SVGconv.
Copyright   : Copyright 1987-1992 Bitstream Inc. All rights reserved.  Copyright  2000 ParaType Inc., ParaType Ltd. All rights reserved.
Designer    : Gayaneh Bagdasaryan
Foundry     : ParaType, Ltd
Foundry URL : http://www.paratype.com
</metadata>
<defs>
<font id="OriginalGaramondBTWeb-Bold" horiz-adv-x="598" >
<font-face units-per-em="1000" ascent="1015" descent="312" />
<missing-glyph horiz-adv-x="500" />
<glyph unicode="&#13;" horiz-adv-x="250" />
<glyph unicode="&#32;" horiz-adv-x="250" />
<glyph unicode="&#33;" horiz-adv-x="359" d="M107 603q-3 24 -3 36q0 33 18 51q18 18 53 18q35 0 53.5 -18q18.5 -18 18.5 -51q0 -11 -3 -36l-57 -385h-24zM97 66q0 32 23 55q23 23 55 23q32 0 55 -23q23 -23 23 -55q0 -32 -23 -55q-23 -23 -55 -23q-31 0 -54.5 23.5t-23.5 54.5z" />
<glyph unicode="&#34;" horiz-adv-x="339" d="M206 642q-1 5 -1 9q0 5 0 10q0 26 12.5 39.5q12.5 13.5 34.5 13.5q22 0 34.5 -13.5q12.5 -13.5 12.5 -38.5q0 -5 -0.5 -10q-0.5 -5 -1.5 -10l-36 -224h-19zM42 642q-1 5 -1 9q0 5 0 10q0 53 46 53q47 0 47 -53q0 -5 0 -10q0 -4 -1 -9l-36 -224l-19 0z" />
<glyph unicode="&#35;" horiz-adv-x="769" d="M343 419l-46 -129h134l46 129zM373 500h131l76 213h89l-76 -213h142l-29 -81h-142l-45 -128h150l-29 -82h-150l-75 -212h-90l76 212h-131l-75 -212h-90l76 212h-147l29 82h147l45 128h-156l30 81h155l76 213l89 0z" />
<glyph unicode="&#36;" horiz-adv-x="500" d="M231 636q-49 -5 -77 -34.5q-28 -29.5 -28 -76.5q0 -90 105 -118zM261 25q51 4 81.5 39.5q30.5 35.5 30.5 89.5q0 90 -112 123zM24 157l36 8q49 -140 165 -140h3v261q-197 48 -197 193q0 37 14 70.5q14 33.5 40 59q26 25.5 63 41.5q37 16 83 19l0 75h34v-73q80 -3 168 -43l5 -119l-36 -4q-15 62 -48 94.5q-33 32.5 -89 36.5l0 -239q100 -21 154 -71.5q54 -50.5 54 -129.5q0 -42 -14.5 -78q-14.5 -36 -42 -63q-27.5 -27 -67 -43.5q-39.5 -16.5 -88.5 -20.5l0 -119h-33v118q-118 2 -192 46z" />
<glyph unicode="&#37;" horiz-adv-x="925" d="M695 19q72 0 72 137q0 137 -72 137q-72 0 -72 -137q0 -137 72 -137zt0 0zM694 323q78 0 123 -44.5q45 -44.5 45 -122.5q0 -78 -45 -123q-45 -45 -123 -45q-78 0 -122 45q-44 45 -44 123q0 78 44 122.5q44 44.5 122 44.5zt0 0zM256 -29l358 745h45l-357 -745zM224 393q72 0 72 137q0 137 -72 137q-72 0 -72 -137q0 -137 72 -137zt0 0zM223 697q78 0 123 -44.5q45 -44.5 45 -122.5q0 -78 -45 -122.5q-45 -44.5 -123 -44.5q-78 0 -122 44.5q-44 44.5 -44 122.5q0 78 44 122.5t122 44.5z" />
<glyph unicode="&#38;" horiz-adv-x="858" d="M224 552q0 -32 23 -62.5q23 -30.5 68 -53.5q23 15 32 35q9 20 9 49q0 48 -20 75q-20 27 -52 27q-28 0 -44 -19q-16 -19 -16 -51zt0 0zM314 73q41 0 75.5 21.5q34.5 21.5 70.5 65.5q-32 57 -84 104q-52 47 -122 89q-40 -19 -62 -53.5q-22 -34.5 -22 -77.5q0 -31 12 -58q12 -27 31.5 -47.5q19.5 -20.5 45.5 -32q26 -11.5 55 -11.5zt0 0zM823 96q-28 -58 -71 -86.5q-43 -28.5 -94 -29.5l-3 0q-42 0 -69.5 18.5q-27.5 18.5 -49.5 43.5q-17 23 -30 42.5q-13 19.5 -28 42.5q-54 -74 -106 -110q-52 -36 -117 -36q-42 0 -76.5 13.5q-34.5 13.5 -59.5 37.5q-25 24 -39 56.5q-14 32.5 -14 70.5q0 133 164 214q-45 30 -68 66.5q-23 36.5 -23 71.5q0 30 12 56q12 26 33 45.5q21 19.5 51 30.5q30 11 66 11q31 0 56.5 -8.5q25.5 -8.5 43.5 -23.5q18 -15 28 -35q10 -20 10 -43q0 -37 -25 -67.5q-25 -30.5 -76 -60.5q54 -30 100 -71.5q46 -41.5 86 -97.5q47 60 69 102.5q22 42.5 22 64.5q0 44 -72 49l0 30q8 1 15 1q8 0 15 0q30 0 56.5 -2q26.5 -2 49.5 -2q23 0 46.5 2.5q23.5 2.5 46.5 2.5q5 0 10 0q5 0 10 -1l0 -28q-44 -2 -70.5 -23q-26.5 -21 -52.5 -56q-20 -26 -49 -69.5q-29 -43.5 -75 -98.5q42 -78 77 -117.5q35 -39.5 83 -39.5q26 0 49 12q23 12 47 37z" />
<glyph unicode="&#39;" horiz-adv-x="175" d="M42 642q-1 5 -1 9q0 5 0 10q0 53 46 53q47 0 47 -53q0 -5 0 -10q0 -4 -1 -9l-36 -224l-19 0z" />
<glyph unicode="&#40;" horiz-adv-x="384" d="M350 695q-78 -90 -120 -206.5q-42 -116.5 -42 -252.5q0 -148 41 -267q41 -119 114 -199l-19 -27q-111 91 -169 212q-58 121 -58 261q0 140 57 267q57 127 171 235z" />
<glyph unicode="&#41;" horiz-adv-x="384" d="M33 -235q78 91 119.5 207.5q41.5 116.5 41.5 252.5q0 148 -40.5 267q-40.5 119 -113.5 199l19 27q110 -90 168 -211.5q58 -121.5 58 -258.5q0 -289 -227 -505z" />
<glyph unicode="&#42;" horiz-adv-x="500" d="M214 544q-14 -2 -25 -2q-11 0 -21 0q-50 0 -73.5 12q-23.5 12 -23.5 41q0 26 18.5 45.5q18.5 19.5 39.5 19.5q23 0 44.5 -25.5q21.5 -25.5 48.5 -76.5zM210 488q-26 -53 -46 -79.5q-20 -26.5 -45 -26.5q-22 0 -39.5 19.5q-17.5 19.5 -17.5 46.5q0 30 26 42q26 12 82 12q8 0 16 -0.5q8 -0.5 17 -0.5zM259 473q37 -34 56 -58.5q19 -24.5 19 -42.5q0 -22 -16 -37q-16 -15 -42 -15q-26 0 -40.5 13.5q-14.5 13.5 -14.5 36.5q0 14 5.5 39q5.5 25 18.5 60zM280 520q73 46 107 46q19 0 33.5 -15.5q14.5 -15.5 14.5 -41.5q0 -23 -14.5 -39.5q-14.5 -16.5 -37.5 -16.5q-14 0 -40 13q-26 13 -63 40zM252 559q-9 30 -13 54q-4 24 -4 42q0 25 14 39.5q14 14.5 37 14.5q25 0 44 -17q19 -17 19 -37q0 -20 -20.5 -44.5q-20.5 -24.5 -61.5 -56.5z" />
<glyph unicode="&#43;" horiz-adv-x="833" d="M458 339h251v-81h-251v-258h-83v258h-251v81h251v257l83 0z" />
<glyph unicode="&#44;" horiz-adv-x="250" d="M38 -133q106 29 106 95q0 24 -14 36.5q-14 12.5 -42 23.5q-26 11 -38.5 22.5q-12.5 11.5 -12.5 36.5q0 26 20.5 45.5q20.5 19.5 51.5 19.5q21 0 39.5 -9q18.5 -9 33 -25.5q14.5 -16.5 22.5 -39q8 -22.5 8 -48.5q0 -69 -42.5 -117.5q-42.5 -48.5 -123.5 -65.5z" />
<glyph unicode="&#45;" horiz-adv-x="380" d="M42 284h296v-100l-296 0z" />
<glyph unicode="&#46;" horiz-adv-x="250" d="M40 66q0 32 23 55q23 23 55 23q32 0 55 -23q23 -23 23 -55q0 -32 -23 -55q-23 -23 -55 -23q-31 0 -54.5 23.5t-23.5 54.5z" />
<glyph unicode="&#47;" horiz-adv-x="419" d="M19 -93l325 792h50l-324 -792z" />
<glyph unicode="&#48;" horiz-adv-x="500" d="M250 552q-71 0 -113 -56.5q-42 -56.5 -42 -161.5q0 -106 41.5 -163q41.5 -57 113.5 -57q72 0 114 57q42 57 42 163q0 105 -42 161.5q-42 56.5 -114 56.5zt0 0zM250 -12q-106 0 -154 85q-48 85 -48 259q0 170 52 255q52 85 150 85q99 0 150.5 -85q51.5 -85 51.5 -255q0 -174 -48 -259t-154 -85z" />
<glyph unicode="&#49;" horiz-adv-x="500" d="M128 27q46 5 61.5 21q15.5 16 15.5 57v467q-25 -21 -52 -38.5q-27 -17.5 -55 -32.5l-17 32q39 24 81.5 57.5q42.5 33.5 87.5 80.5l66 0v-568q0 -20 2 -33.5q2 -13.5 8.5 -21.5q6.5 -8 19.5 -11.5q13 -3.5 35 -3.5h11v-30q-21 -1 -34.5 -1.5q-13.5 -0.5 -18.5 -0.5q-89 0 -140 -1.5q-51 -1.5 -65 -1.5l-6 0z" />
<glyph unicode="&#50;" horiz-adv-x="500" d="M14 40q301 265 301 416q0 58 -32 92q-32 34 -82 34q-70 0 -122 -82l-29 18q42 77 96.5 115q54.5 38 116.5 38q78 0 123 -45q45 -45 45 -121q0 -89 -76 -184q-76 -95 -221 -216l70 0q46 0 104.5 0.5q58.5 0.5 129.5 5.5l-58 -106q-54 -3 -106 -3q-45 0 -85.5 1q-40.5 1 -79.5 1q-22 0 -45.5 -0.5q-23.5 -0.5 -49.5 -1.5z" />
<glyph unicode="&#51;" horiz-adv-x="500" d="M143 357q62 26 94 63.5q32 37.5 32 75.5q0 35 -24 59q-24 24 -59 24q-43 0 -76 -36l-18 13q27 57 64.5 86q37.5 29 77.5 29q29 0 53.5 -9.5q24.5 -9.5 42 -25.5q17.5 -16 27.5 -37q10 -21 10 -44q0 -67 -85 -132l0 -8q68 -27 103 -73.5q35 -46.5 35 -105.5q0 -67 -50 -126q-51 -60 -111 -91q-60 -31 -125 -31q-49 0 -75.5 19q-26.5 19 -26.5 45q0 18 13.5 29.5q13.5 11.5 36.5 11.5q16 0 29.5 -6.5q13.5 -6.5 27 -15q13.5 -8.5 27 -15q13.5 -6.5 28.5 -6.5q45 0 75 37q30 37 30 100q0 31 -9 57q-9 26 -25.5 45q-16.5 19 -39 29.5q-22.5 10.5 -49.5 10.5q-15 0 -23.5 -0.5q-8.5 -0.5 -9.5 -0.5z" />
<glyph unicode="&#52;" horiz-adv-x="500" d="M262 524q-83 -102 -121 -161.5q-38 -59.5 -38 -67.5q0 -16 26 -16h133zM366 0h-104v191h-230v79q34 52 71 102q37 50 74 99.5q37 49.5 73 99.5q36 50 69 101l47 -5v-388h80v-88l-80 0z" />
<glyph unicode="&#53;" horiz-adv-x="500" d="M70 331q14 81 25.5 163q11.5 82 20.5 166l288 0v-9l-38 -89q-24 -2 -48 -2.5q-24 -0.5 -47 -0.5q-20 0 -38.5 0.5q-18.5 0.5 -35.5 0.5q-13 0 -24.5 -0.5q-11.5 -0.5 -22.5 -1.5l-19 -124q48 9 85 9q51 0 93.5 -15.5q42.5 -15.5 73 -43.5q30.5 -28 47 -67q16.5 -39 16.5 -85q0 -47 -20.5 -89q-20.5 -42 -58.5 -75q-44 -37 -100.5 -58.5q-56.5 -21.5 -110.5 -21.5q-64 0 -97.5 18.5q-33.5 18.5 -33.5 50.5q0 22 15.5 36.5q15.5 14.5 40.5 14.5q19 0 39 -18q21 -20 36 -35q15 -15 39 -15q27 0 50.5 11q23.5 11 41.5 31.5q18 20.5 28 49.5q10 29 10 65q0 69 -36 108q-36 39 -96 39q-50 0 -88 -28z" />
<glyph unicode="&#54;" horiz-adv-x="500" d="M253 300q-24 0 -43 -14q-19 -14 -39 -43q-1 -13 -1 -25q0 -12 0 -23q0 -86 19 -127.5q19 -41.5 64 -41.5q40 0 61.5 35q21.5 35 21.5 104q0 66 -22 100.5q-22 34.5 -61 34.5zt0 0zM376 655q-107 -68 -154 -159.5q-47 -91.5 -51 -209.5q59 80 141 80q63 0 102.5 -47q39.5 -47 39.5 -130q0 -94 -53.5 -147.5q-53.5 -53.5 -144.5 -53.5q-96 0 -150 64q-54 64 -54 182q0 143 77.5 256.5q77.5 113.5 229.5 191.5z" />
<glyph unicode="&#55;" horiz-adv-x="500" d="M66 2l261 477q11 20 17 32.5q6 12.5 6 20.5q0 12 -9 14.5q-9 2.5 -32 2.5h-10q-33 0 -70.5 -1.5q-37.5 -1.5 -80.5 -1.5q-18 0 -39.5 0.5q-21.5 0.5 -46.5 1.5l39 109q15 1 39 1q24 0 58 0q44 0 81.5 -0.5q37.5 -0.5 69.5 -0.5q25 0 58 1q33 1 75 2l0 -32q-50 -81 -81.5 -140.5q-31.5 -59.5 -51.5 -95.5l-226 -415z" />
<glyph unicode="&#56;" horiz-adv-x="500" d="M169 545q0 -44 29 -80q29 -36 88 -72q61 41 61 119q0 55 -27 88.5q-27 33.5 -69 33.5q-37 0 -59.5 -23.5q-22.5 -23.5 -22.5 -65.5zt0 0zM341 127q0 47 -30 87.5q-30 40.5 -92 79.5q-75 -45 -75 -139q0 -29 8 -53q8 -24 22 -41q14 -17 32.5 -26.5q18.5 -9.5 39.5 -9.5q42 0 68.5 28q26.5 28 26.5 74zt0 0zM69 491q0 37 14.5 70q14.5 33 40 58q25.5 25 60 39q34.5 14 73.5 14q37 0 68.5 -11.5q31.5 -11.5 54.5 -32.5q23 -21 36 -49.5q13 -28.5 13 -62.5q0 -82 -116 -141q66 -48 99 -97q33 -49 33 -109q0 -39 -14.5 -72q-14.5 -33 -41 -57.5q-26.5 -24.5 -63 -38q-36.5 -13.5 -80.5 -13.5q-43 0 -78 12.5q-35 12.5 -60.5 34q-25.5 21.5 -39.5 50q-14 28.5 -14 60.5q0 51 33.5 91.5q33.5 40.5 102.5 75.5q-62 38 -91.5 81.5t-29.5 97.5z" />
<glyph unicode="&#57;" horiz-adv-x="500" d="M154 490q0 -71 22 -106.5q22 -35.5 62 -35.5q22 0 44.5 12.5q22.5 12.5 42.5 36.5q1 12 1 23q0 11 0 22q0 97 -22.5 144.5q-22.5 47.5 -71.5 47.5q-38 0 -58 -36q-20 -36 -20 -108zt0 0zM114 5q104 66 155.5 149q51.5 83 56.5 196q-61 -61 -129 -61q-34 0 -62.5 12.5q-28.5 12.5 -49.5 36q-21 23.5 -33 56q-12 32.5 -12 72.5q0 45 15.5 82.5q15.5 37.5 42.5 64.5q27 27 63 42.5q36 15.5 78 15.5q45 0 82.5 -17.5q37.5 -17.5 64.5 -50q27 -32.5 42 -79.5q15 -47 15 -106q0 -140 -78 -251q-78 -111 -234 -190z" />
<glyph unicode="&#58;" horiz-adv-x="273" d="M50 376q0 32 22.5 55q22.5 23 54.5 23q32 0 55 -23q23 -23 23 -55q0 -32 -23 -55q-23 -23 -55 -23q-31 0 -54 23.5q-23 23.5 -23 54.5zt0 0zM50 66q0 32 22.5 55q22.5 23 54.5 23q32 0 55 -23q23 -23 23 -55q0 -32 -23 -55q-23 -23 -55 -23q-31 0 -54 23.5t-23 54.5z" />
<glyph unicode="&#59;" horiz-adv-x="273" d="M50 376q0 32 22.5 55q22.5 23 54.5 23q32 0 55 -23q23 -23 23 -55q0 -32 -23 -55q-23 -23 -55 -23q-31 0 -54 23.5q-23 23.5 -23 54.5zt0 0zM37 -133q106 29 106 95q0 24 -13.5 36.5q-13.5 12.5 -41.5 23.5q-26 11 -38.5 22.5q-12.5 11.5 -12.5 36.5q0 26 20.5 45.5q20.5 19.5 51.5 19.5q21 0 39.5 -9q18.5 -9 33 -25.5q14.5 -16.5 22.5 -39q8 -22.5 8 -48.5q0 -69 -43 -117.5q-43 -48.5 -124 -65.5z" />
<glyph unicode="&#60;" horiz-adv-x="833" d="M248 298l456 -186v-89l-575 236v78l575 237l0 -90z" />
<glyph unicode="&#61;" horiz-adv-x="833" d="M709 157h-585v81h585zM709 358h-585v82l585 0z" />
<glyph unicode="&#62;" horiz-adv-x="833" d="M704 259l-575 -236v89l456 186l-456 186v90l575 -237z" />
<glyph unicode="&#63;" horiz-adv-x="444" d="M129 385q84 19 123 45q39 26 39 74q0 41 -25.5 64.5q-25.5 23.5 -71.5 23.5q-16 0 -31 -2q-15 -2 -29 -2q-31 0 -48.5 15.5q-17.5 15.5 -17.5 40.5q0 28 18.5 45.5q18.5 17.5 51.5 17.5q33 0 69 -20.5q36 -20.5 69 -62.5q32 -38 49 -89q17 -51 17 -102q0 -54 -24 -84q-24 -30 -78 -49q-17 -6 -29.5 -9.5q-12.5 -3.5 -21 -7.5q-8.5 -4 -12.5 -10q-4 -6 -5 -18l-4 -55h-28zM78 66q0 32 22.5 55q22.5 23 54.5 23q32 0 55 -23q23 -23 23 -55q0 -32 -23 -55q-23 -23 -55 -23q-31 0 -54 23.5t-23 54.5z" />
<glyph unicode="&#64;" horiz-adv-x="874" d="M640 585q-33 -78 -53 -127.5q-20 -49.5 -31 -79.5q-11 -30 -15.5 -44q-4.5 -14 -5.5 -19q-6 -22 -8 -38q-2 -16 -2 -28q0 -12 2.5 -22q2.5 -10 11.5 -18q9 -8 21.5 -12q12.5 -4 26.5 -4q29 0 60 12q31 12 54 31q20 16 37 38q17 22 26 48q7 19 11.5 47.5q4.5 28.5 4.5 53.5q0 38 -9 75.5q-9 37.5 -25 65.5q-17 29 -42.5 52.5q-25.5 23.5 -57.5 40.5q-32 16 -72 26q-40 10 -83 10q-48 0 -91.5 -11.5q-43.5 -11.5 -79.5 -30.5q-49 -26 -85 -63q-36 -37 -59 -78q-24 -45 -35.5 -96q-11.5 -51 -11.5 -102q0 -42 9 -80.5q9 -38.5 31 -74.5q20 -35 53.5 -65.5q33.5 -30.5 81.5 -51.5q33 -15 74 -24q41 -9 85 -9q42 0 88 10q46 10 84 24q30 12 53 25.5q23 13.5 43 28.5l13 -20q-22 -17 -45.5 -30.5q-23.5 -13.5 -55.5 -27.5q-51 -21 -94 -28.5q-43 -7.5 -91 -7.5q-45 0 -94.5 8q-49.5 8 -99.5 31q-48 22 -83 52.5q-35 30.5 -58 64.5q-29 44 -42 92q-13 48 -13 99q0 56 13.5 106.5q13.5 50.5 47.5 100.5q35 53 78 86.5q43 33.5 88 55.5q24 12 46 20.5q22 8.5 44 13q22 4.5 45 6.5q23 2 50 2q28 0 60 -3.5q32 -3.5 64.5 -13q32.5 -9.5 64.5 -27q32 -17.5 60 -45.5q13 -14 27.5 -32.5q14.5 -18.5 25.5 -44q11 -25.5 18.5 -57.5q7.5 -32 7.5 -71q0 -54 -13.5 -96.5q-13.5 -42.5 -35.5 -71.5q-17 -22 -38.5 -39q-21.5 -17 -43.5 -28q-38 -19 -70 -23q-32 -4 -55 -4q-9 0 -21.5 0.5q-12.5 0.5 -26 3q-13.5 2.5 -25.5 6.5q-12 4 -20 12q-9 9 -10.5 17.5q-1.5 8.5 -1.5 16.5q0 16 2.5 25.5q2.5 9.5 6.5 23.5q8 28 16 51q8 23 19 49l-3 0q-7 -12 -17.5 -29q-10.5 -17 -24 -36.5q-13.5 -19.5 -29 -39q-15.5 -19.5 -31.5 -35.5q-7 -7 -17.5 -16.5q-10.5 -9.5 -23.5 -17.5q-13 -8 -28 -14q-15 -6 -31 -6q-22 0 -37 12q-9 8 -15 22q-6 14 -6 37q0 37 15 76q15 39 40 75q24 35 59 69q35 34 77 57q32 19 61.5 26q29.5 7 54.5 7q6 0 13.5 -0.5q7.5 -0.5 12.5 -1.5l24 32zM312 287q0 -7 1.5 -15q1.5 -8 7.5 -15q7 -10 21 -10q2 0 10.5 2q8.5 2 22.5 12q10 7 29.5 27q19.5 20 50.5 68q7 12 16.5 27.5q9.5 15.5 18 31q8.5 15.5 15 29q6.5 13.5 8.5 21.5q2 10 3.5 14q1.5 4 1.5 7q0 11 -7 16q-4 3 -11 4.5q-7 1.5 -12 1.5q-14 0 -32.5 -6q-18.5 -6 -32.5 -16q-11 -8 -33 -28q-22 -20 -45 -63q-4 -7 -9.5 -18.5q-5.5 -11.5 -11 -26q-5.5 -14.5 -9 -31t-3.5 -32.5z" />
<glyph unicode="&#65;" horiz-adv-x="785" d="M442 301l-102 255q-13 -45 -24 -78.5q-11 -33.5 -25 -73.5l-35 -103zM33 36h6q13 0 31.5 3q18.5 3 35.5 20q9 9 16.5 24.5q7.5 15.5 18.5 44.5l68 185q14 39 26.5 73.5q12.5 34.5 24 68q11.5 33.5 22.5 67.5q11 34 22 71q6 20 11.5 39q5.5 19 11.5 45l66 52h11l33 -87l220 -543q6 -14 13.5 -29q7.5 -15 19.5 -23q8 -5 18.5 -6.5q10.5 -1.5 24.5 -3.5l13 -2v-34h-28l-124 3l-112 -3h-31v34l17 1q21 2 30 4.5q9 2.5 13 4.5q19 11 19 36q0 5 -1.5 12q-1.5 7 -3.5 12l-63 154h-222l-43 -128q-7 -21 -9 -31q-2 -10 -2 -18q0 -10 3 -18q3 -8 12 -15q12 -9 34.5 -12q22.5 -3 34.5 -3l0 -33h-19l-118 3l-100 -3z" />
<glyph unicode="&#66;" horiz-adv-x="665" d="M31 38h8q14 0 34 3.5q20 3.5 34 17.5q12 12 14.5 26.5q2.5 14.5 2.5 26.5v467q0 12 -2.5 28.5q-2.5 16.5 -12.5 28.5q-9 11 -25.5 17q-16.5 6 -33.5 8l-18 2v34q29 0 48 -0.5q19 -0.5 32 -1q13 -0.5 21 -0.5q9 0 18 0q47 0 93 2.5q46 2.5 93 2.5q21 0 46.5 -2q25.5 -2 51 -8q25.5 -6 49.5 -17.5q24 -11.5 43 -30.5q38 -38 38 -99q0 -17 -6 -43q-6 -26 -29 -49q-13 -14 -32 -24.5q-19 -10.5 -40 -17.5q-21 -7 -42 -11q-21 -4 -38 -5l0 -6q22 -2 48 -5.5q26 -3.5 52.5 -12q26.5 -8.5 51 -21.5q24.5 -13 42.5 -33q23 -24 32 -52.5q9 -28.5 9 -59.5q0 -48 -15.5 -82q-15.5 -34 -36.5 -56q-21 -21 -45.5 -34q-24.5 -13 -50.5 -20q-26 -7 -51.5 -9.5q-25.5 -2.5 -48.5 -2.5q-41 0 -81.5 2.5q-40.5 2.5 -81.5 2.5q-28 0 -56 -1.5q-28 -1.5 -57 -1.5h-14l-44 1zM246 403l28 -1h8q38 0 68 11.5q30 11.5 47 29.5q13 13 23 36.5q10 23.5 10 60.5q0 21 -7 47.5q-7 26.5 -30 48.5q-29 28 -74 28q-22 0 -35.5 -5.5q-13.5 -5.5 -20.5 -13.5q-12 -13 -14.5 -29.5q-2.5 -16.5 -2.5 -24.5zM246 158q0 -20 3 -46.5q3 -26.5 19 -44.5q16 -19 37.5 -23q21.5 -4 36.5 -4q21 0 47.5 6q26.5 6 47.5 27q17 17 28 46.5q11 29.5 11 71.5q0 52 -14 82q-14 30 -31 46q-24 23 -62.5 34.5q-38.5 11.5 -76.5 11.5h-5l-41 -1z" />
<glyph unicode="&#67;" horiz-adv-x="773" d="M699 586q2 -14 4 -23q2 -9 3 -17q1 -8 2 -15.5q1 -7.5 1 -17.5l-37 -4q-9 27 -24 52q-15 25 -36 45q-28 27 -68.5 44q-40.5 17 -89.5 17q-57 0 -99 -21q-42 -21 -70 -49q-38 -38 -62.5 -100q-24.5 -62 -24.5 -142q0 -54 11 -95.5q11 -41.5 25.5 -71.5q14.5 -30 29.5 -48.5q15 -18.5 23 -26.5q14 -14 33 -28q19 -14 43.5 -25.5q24.5 -11.5 54 -18.5q29.5 -7 65.5 -7q42 0 80.5 12q38.5 12 70.5 45q18 18 33 44q15 26 25 52l38 -9q-5 -20 -6.5 -27.5q-1.5 -7.5 -4.5 -20.5q-3 -11 -4.5 -18q-1.5 -7 -3 -12.5q-1.5 -5.5 -2.5 -10q-1 -4.5 -3 -10.5q-3 -11 -5 -21.5q-2 -10.5 -4 -23.5q-27 -12 -86 -29q-59 -17 -150 -17q-109 0 -190.5 34q-81.5 34 -130.5 85q-17 17 -33 40.5q-16 23.5 -29 53.5q-13 30 -21 67q-8 37 -8 81q0 55 12.5 99.5q12.5 44.5 32.5 79.5q23 40 60 75q37 35 89 61q49 24 102 34.5q53 10.5 110 10.5q49 0 108 -10.5q59 -10.5 125 -42.5z" />
<glyph unicode="&#68;" horiz-adv-x="825" d="M33 34q17 0 40.5 7q23.5 7 35.5 23q8 11 12 31q4 20 4 58v421q0 18 -4 37q-4 19 -13 30q-5 5 -15.5 11.5q-10.5 6.5 -32.5 7.5l-23 1v28q37 7 77.5 12.5q40.5 5.5 80 9.5q39.5 4 76 6q36.5 2 66.5 2q19 0 43 -1q24 -1 49 -3.5q25 -2.5 48.5 -6.5q23.5 -4 42.5 -10q45 -13 93 -42q48 -29 83 -66q15 -17 31 -39.5q16 -22.5 29 -51.5q13 -29 21 -65.5q8 -36.5 8 -81.5q0 -47 -11 -90.5q-11 -43.5 -37 -84.5q-20 -31 -55.5 -66.5q-35.5 -35.5 -98.5 -64.5q-51 -24 -102 -34q-51 -10 -108 -10q-43 0 -85.5 2.5q-42.5 2.5 -85.5 2.5q-35 0 -71 -2q-36 -2 -71 -2h-27zM253 160q0 -17 4.5 -40q4.5 -23 21.5 -41q11 -11 25.5 -17.5q14.5 -6.5 29 -10q14.5 -3.5 28 -4.5q13.5 -1 22.5 -1q32 0 58.5 5.5q26.5 5.5 53.5 19.5q63 33 99 92q23 38 36 86q13 48 13 106q0 81 -23.5 143q-23.5 62 -62.5 101q-23 23 -49 37.5q-26 14.5 -52.5 22.5q-26.5 8 -52.5 11q-26 3 -48 3q-34 0 -54 -5.5q-20 -5.5 -30 -16.5q-14 -14 -16.5 -32.5q-2.5 -18.5 -2.5 -28.5z" />
<glyph unicode="&#69;" horiz-adv-x="620" d="M118 696q32 -1 57.5 -1.5q25.5 -0.5 48.5 -0.5q27 0 53.5 0.5q26.5 0.5 59.5 1.5q36 1 89 2q53 1 119 1l0 -34q0 -11 0.5 -26q0.5 -15 1 -30.5q0.5 -15.5 1 -29.5q0.5 -14 0.5 -23l-38 -2v10q0 18 -5 36.5q-5 18.5 -17 30.5q-17 17 -49 22q-32 5 -73 5q-42 0 -66.5 -2q-24.5 -2 -34.5 -13q-9 -9 -11 -27.5q-2 -18.5 -2 -35.5v-196h43q33 0 57 1q24 1 42 6q17 5 25 13q8 8 13 24l11 40h32l-2 -106l3 -83l-1 -28l-35 4v7q0 11 -2.5 29.5q-2.5 18.5 -16.5 32.5q-11 11 -31 16.5q-20 5.5 -55 5.5q-17 0 -41.5 -1q-24.5 -1 -41.5 -2l0 -197q0 -32 3.5 -54q3.5 -22 15.5 -33q13 -12 33 -14q20 -2 33 -2h120q17 0 39.5 7q22.5 7 39.5 33l46 73l39 -12q-8 -21 -18 -54q-10 -33 -23 -84q-8 -1 -21 -2q-13 -1 -27 -2q-14 -1 -26 -1.5q-12 -0.5 -17 -0.5l-228 3h-20q-21 0 -39.5 -0.5q-18.5 -0.5 -38.5 -2q-20 -1.5 -42.5 -3q-22.5 -1.5 -51.5 -2.5l-32 -2v38q23 2 44 5.5q21 3.5 32 20.5q7 10 9 26.5q2 16.5 2 47.5v434q0 23 -1.5 45q-1.5 22 -12.5 34q-11 11 -33 15.5q-22 4.5 -45 5.5l0 34z" />
<glyph unicode="&#70;" horiz-adv-x="620" d="M37 31l36 4q17 2 27 8.5q10 6.5 15.5 18.5q5.5 12 7 29q1.5 17 1.5 40v434q0 28 -2 46.5q-2 18.5 -11 30q-9 11.5 -27.5 16.5q-18.5 5 -51.5 7l0 34q48 -1 97 -2q49 -1 99 -1q35 0 121 1q86 1 224 2q-1 -17 -1 -36q0 -18 0 -37q0 -20 0 -40q0 -19 1 -39l-38 0q0 33 -9 54.5q-9 21.5 -27.5 34q-18.5 12.5 -47.5 17.5q-29 5 -71 5q-79 0 -108 -10q-13 -5 -16.5 -21.5q-3.5 -16.5 -3.5 -46.5v-196q12 -1 27 -1q15 0 33 0q45 0 77.5 1q32.5 1 53.5 8.5q21 7.5 32 23.5q11 16 14 46l32 4q0 -46 -0.5 -73q-0.5 -27 -0.5 -35q0 -12 1 -30q1 -18 1 -43q0 -8 0 -17q0 -9 -1 -19l-34 3v12q0 49 -32 65.5q-32 16.5 -104 16.5q-42 0 -99 -3l0 -221q0 -24 2.5 -40q2.5 -16 11.5 -25.5q9 -9.5 27 -13.5q18 -4 49 -5l0 -36q-25 0 -47.5 0.5q-22.5 0.5 -43.5 0.5q-63 0 -116 -3.5q-53 -3.5 -98 -6.5z" />
<glyph unicode="&#71;" horiz-adv-x="827" d="M747 266q-8 -1 -16 -5q-8 -4 -13 -16q-5 -9 -6 -26q-1 -17 -1 -60q0 -10 0.5 -24q0.5 -14 1 -29.5q0.5 -15.5 1.5 -30q1 -14.5 2 -25.5q-44 -20 -83.5 -31.5q-39.5 -11.5 -73.5 -17.5q-34 -6 -60.5 -8q-26.5 -2 -44.5 -2q-15 0 -40 1q-25 1 -56.5 6.5q-31.5 5.5 -66.5 16q-35 10.5 -69 29.5q-39 22 -73 54q-34 32 -57 72q-23 39 -33.5 82q-10.5 43 -10.5 86q0 37 8 75.5q8 38.5 25 75.5q4 8 12.5 24q8.5 16 23 36q14.5 20 35.5 42.5q21 22.5 50 43.5q51 36 113.5 55q62.5 19 138.5 19q66 0 125 -14q30 -7 61 -18.5q31 -11.5 62 -27.5l0 -8q0 -20 1.5 -38.5q1.5 -18.5 3.5 -47.5l2 -39h-32q-11 35 -30 61.5q-19 26.5 -42 44.5q-23 19 -58 32q-35 13 -83 13q-36 0 -65.5 -7.5q-29.5 -7.5 -53.5 -19q-24 -11.5 -42 -25q-18 -13.5 -31 -26.5q-16 -16 -31.5 -38q-15.5 -22 -28 -50.5q-12.5 -28.5 -20 -64q-7.5 -35.5 -7.5 -78.5q0 -98 41 -174q17 -31 42 -61q25 -30 56 -50q31 -20 63.5 -28q32.5 -8 67.5 -8q80 0 116 38q17 18 22.5 40q5.5 22 5.5 40v45q0 11 -2 25.5q-2 14.5 -13 25.5q-9 8 -23.5 11.5q-14.5 3.5 -32.5 5.5l-55 4v31l29 1l101 -4l180 2l0 -31z" />
<glyph unicode="&#72;" horiz-adv-x="882" d="M31 38h8q26 0 42.5 6q16.5 6 25.5 15q12 12 14.5 28q2.5 16 2.5 25v469q0 19 -2.5 33.5q-2.5 14.5 -9.5 22.5q-5 7 -21.5 15q-16.5 8 -58.5 13l0 34l154 -4l156 3v-35h-7q-30 0 -44.5 -5q-14.5 -5 -20.5 -10q-13 -11 -15.5 -28q-2.5 -17 -2.5 -31v-189h377v211q0 9 -2.5 19.5q-2.5 10.5 -12.5 18.5q-6 4 -15.5 7q-9.5 3 -20 5q-10.5 2 -20.5 2.5q-10 0.5 -16 0.5l0 34l67 -2q38 -2 61 -2q23 0 37 0q14 0 21 0.5q7 0.5 13 1q6 0.5 15 1q9 0.5 27 0.5l63 1v-35h-5q-16 0 -36 -4q-20 -4 -30 -12q-13 -11 -15.5 -28q-2.5 -17 -2.5 -31v-458q0 -29 3.5 -47q3.5 -18 12.5 -28q9 -10 27 -14.5q18 -4.5 34 -4.5q9 0 13 1l0 -35l-36 -1l-113 3l-110 -3l-48 1v35h10q14 0 32.5 2.5q18.5 2.5 29.5 13.5q9 9 13 25q4 16 4 33v239h-377v-229v-7q0 -14 2 -30.5q2 -16.5 12 -27.5q6 -6 15.5 -10q9.5 -4 20 -6q10.5 -2 21.5 -2.5q11 -0.5 19 -0.5l0 -35l-160 2l-103 -3l-48 1z" />
<glyph unicode="&#73;" horiz-adv-x="396" d="M196 695l158 3v-35q-24 0 -43 -3q-19 -3 -30 -13q-12 -11 -14.5 -27.5q-2.5 -16.5 -2.5 -30.5v-468v-7q0 -14 2 -30.5q2 -16.5 12 -27.5q11 -12 32 -15q21 -3 44 -4l0 -35h-33q-23 0 -34 0.5q-11 0.5 -17 0.5q-6 0 -12 0.5q-6 0.5 -19 0.5h-19l-135 -3l-46 1v36h8q4 0 12.5 0.5q8.5 0.5 17.5 2q9 1.5 18.5 5.5q9.5 4 16.5 10q14 12 17 28q3 16 3 28v469q0 15 -2 31q-2 16 -11 26q-3 4 -18.5 13q-15.5 9 -60.5 14l0 34z" />
<glyph unicode="&#74;" horiz-adv-x="382" d="M37 698h16l138 -4l126 3h31v-34l-23 -1q-13 -1 -26.5 -4q-13.5 -3 -21.5 -10q-15 -12 -17.5 -31q-2.5 -19 -2.5 -28l1 -419q0 -49 -2 -85q-2 -36 -5 -61.5q-3 -25.5 -6 -42q-3 -16.5 -5 -25.5q-11 -45 -31 -77q-20 -32 -43 -54q-29 -27 -61.5 -38.5q-32.5 -11.5 -65.5 -11.5q-27 0 -47 7.5q-20 7.5 -32 19.5q-7 7 -12.5 19q-5.5 12 -5.5 29q0 8 2.5 17.5q2.5 9.5 11.5 19.5q15 16 38 16q17 0 31 -11q8 -7 12.5 -14q4.5 -7 8.5 -14q6 -11 9 -16.5q3 -5.5 6 -10.5q5 -7 10 -10q5 -3 14 -3q19 0 30 18q1 3 3.5 8.5q2.5 5.5 5 17q2.5 11.5 4 30q1.5 18.5 1.5 47.5v11l-4 631v8q0 12 -1.5 24.5q-1.5 12.5 -9.5 20.5q-4 5 -11 8.5q-7 3.5 -15 6q-8 2.5 -16 4q-8 1.5 -13 2.5l-22 3z" />
<glyph unicode="&#75;" horiz-adv-x="740" d="M32 699l154 -4l156 3v-35l-23 -1q-12 -1 -27 -4q-15 -3 -23 -10q-12 -11 -14.5 -29.5q-2.5 -18.5 -2.5 -29.5v-209q25 21 56 48.5q31 27.5 62 57.5q31 30 58.5 60.5q27.5 30.5 45.5 57.5q9 14 11.5 20.5q2.5 6.5 2.5 10.5q0 5 -2.5 10.5q-2.5 5.5 -12.5 9.5q-8 4 -22 5q-14 1 -22 2l-22 1v35l119 -3l108 2h24v-34q-6 1 -11 1q-5 0 -10 0q-37 0 -65 -18q-20 -12 -30.5 -23.5q-10.5 -11.5 -19.5 -22.5q-19 -23 -48.5 -58.5q-29.5 -35.5 -76.5 -81.5l211 -321q32 -49 50 -67q18 -18 25 -22q13 -8 22 -9.5q9 -1.5 18 -2.5l17 -2v-34l-49 -1l-119 3l-150 -4v35l29 1q8 0 19 2q11 2 18 7q7 6 7 14q0 4 -2 9q-2 5 -7 14l-181 289q-17 -16 -53 -40l0 -210q0 -20 2 -37.5q2 -17.5 12 -27.5q8 -8 22 -12q14 -4 26 -5l28 -2v-35l-160 2l-103 -3l-48 1v36h8q14 0 31.5 2.5q17.5 2.5 30.5 13.5q16 12 19.5 28q3.5 16 3.5 30v469q0 11 -1.5 27.5q-1.5 16.5 -11.5 28.5q-9 11 -27 17q-18 6 -32 8l-20 3z" />
<glyph unicode="&#76;" horiz-adv-x="605" d="M37 31l36 4q11 2 21.5 6q10.5 4 18.5 16q7 10 9 26.5q2 16.5 2 47.5v448q0 22 -2.5 37.5q-2.5 15.5 -10.5 25.5q-6 8 -18.5 13q-12.5 5 -32.5 7l-18 1v34h21l127 -3l115 3l42 -1v-35l-25 -1q-25 -1 -36 -7.5q-11 -6.5 -14 -8.5q-11 -11 -13.5 -26.5q-2.5 -15.5 -2.5 -30.5v-435q0 -20 3 -44.5q3 -24.5 20 -40.5q15 -14 41.5 -17.5q26.5 -3.5 54.5 -3.5q33 0 67 3q34 3 58 19q19 12 29.5 28.5q10.5 16.5 18.5 29.5l19 30l39 -12q-7 -17 -17.5 -50.5q-10.5 -33.5 -26.5 -95.5l-79 2q-66 2 -97.5 2.5q-31.5 0.5 -49.5 0.5q-24 0 -57 -0.5q-33 -0.5 -72.5 -1.5q-39.5 -1 -83 -3q-43.5 -2 -86.5 -5z" />
<glyph unicode="&#77;" horiz-adv-x="921" d="M453 215l125 301q15 35 33 80q18 45 37 101q13 1 25 1q13 0 26 0q32 0 65.5 -1q33.5 -1 68.5 -1q11 0 22 0q12 0 23 1l0 -35h-17q-20 0 -33 -2.5q-13 -2.5 -20 -9.5q-7 -7 -9.5 -19q-2.5 -12 -2.5 -31v-430q0 -38 1.5 -64q1.5 -26 10 -41.5q8.5 -15.5 26.5 -23q18 -7.5 51 -7.5l0 -33h-18q-37 0 -70 1.5q-33 1.5 -62 1.5q-20 0 -51.5 -2q-31.5 -2 -75.5 -2h-30v35l34 3q23 2 35.5 8q12.5 6 18.5 18.5q6 12.5 7.5 33.5q1.5 21 1.5 52v308q0 30 -1.5 68q-1.5 38 -3.5 84q-113 -254 -173 -407.5q-60 -153.5 -71 -208.5l-26 -3q-32 106 -90 250q-58 144 -143 328l-11 -449v-11q0 -20 3.5 -34q3.5 -14 13 -22.5q9.5 -8.5 26.5 -12.5q17 -4 43 -4l0 -34q-9 -1 -18 -1q-8 0 -16 0q-26 0 -45.5 1.5q-19.5 1.5 -32.5 1.5q-23 0 -45.5 -1.5q-22.5 -1.5 -45.5 -1.5q-5 0 -11 0.5q-6 0.5 -12 0.5l0 33q57 2 70 13q12 11 18 48q6 37 8 100l12 351v26q0 19 -2 33.5q-2 14.5 -8.5 24.5q-6.5 10 -18.5 16.5q-12 6.5 -32 9.5l-40 7v33q27 -1 47 -1q20 0 32 0q14 0 49 0q36 0 95 2z" />
<glyph unicode="&#78;" horiz-adv-x="846" d="M22 36h7q14 0 28 2q14 2 23 6q15 7 23 17.5q8 10.5 13 24.5q6 19 7.5 45q1.5 26 1.5 61v352q0 10 -0.5 22.5q-0.5 12.5 -3 24.5q-2.5 12 -7 23.5q-4.5 11.5 -12.5 19.5q-12 12 -33 18q-21 6 -37 8l-28 2v35l29 1l145 -5l64 2l102 -122q55 -66 96.5 -116q41.5 -50 79 -94.5q37.5 -44.5 74.5 -87q37 -42.5 82 -91.5l0 396q0 51 -16 67q-10 10 -23.5 12.5q-13.5 2.5 -23.5 3.5l-30 3v33h14l115 -4l95 3h16v-36l-24 -1q-11 -1 -25.5 -5.5q-14.5 -4.5 -22.5 -12.5q-13 -12 -16 -33.5q-3 -21.5 -3 -39.5v-427q0 -46 0.5 -82.5q0.5 -36.5 2.5 -79.5l-54 0q-40 50 -81 99.5q-41 49.5 -89.5 107q-48.5 57.5 -109 127.5q-60.5 70 -140.5 161l-80 91v-401q0 -37 1 -55q1 -18 3 -29q2 -10 6 -17.5q4 -7.5 12 -12.5q9 -6 23 -9.5q14 -3.5 26 -4.5l23 -2v-36h-15l-123 4l-87 -4l-28 1z" />
<glyph unicode="&#79;" horiz-adv-x="881" d="M695 307q0 39 -6 73q-6 34 -13.5 60.5q-7.5 26.5 -15 44q-7.5 17.5 -9.5 22.5q-4 8 -12 23q-8 15 -20 32.5q-12 17.5 -28.5 36.5q-16.5 19 -37.5 34q-31 23 -63 32.5q-32 9.5 -65 9.5q-31 0 -56.5 -6q-25.5 -6 -46 -15.5q-20.5 -9.5 -36.5 -21q-16 -11.5 -27 -23.5q-28 -29 -51 -80q-23 -51 -23 -133q0 -32 4 -64q4 -32 14 -67q15 -54 38 -93.5q23 -39.5 50 -67.5q22 -23 44.5 -37q22.5 -14 44.5 -22q22 -8 41.5 -11q19.5 -3 35.5 -3q30 0 54.5 6.5q24.5 6.5 44 16.5q19.5 10 34 21.5q14.5 11.5 24.5 20.5q9 9 23 26.5q14 17.5 27 43.5q13 26 22 61q9 35 9 80zt0 0zM418 -19q-46 0 -85 10q-39 10 -72 25q-43 20 -83.5 53.5q-40.5 33.5 -70.5 78.5q-26 39 -42.5 88.5q-16.5 49.5 -16.5 109.5q0 94 46 176q24 42 62 82.5q38 40.5 86 66.5q38 22 87 35q49 13 112 13q65 0 113.5 -13q48.5 -13 83.5 -31q45 -23 79 -55.5q34 -32.5 59 -70.5q26 -41 41 -85q15 -44 15 -96q0 -45 -10.5 -87.5q-10.5 -42.5 -35.5 -85.5q-29 -51 -71 -91q-42 -40 -87 -66q-57 -34 -111 -45.5t-99 -11.5z" />
<glyph unicode="&#80;" horiz-adv-x="605" d="M31 38q51 1 72 18.5q21 17.5 21 62.5v462q0 24 -2 38.5q-2 14.5 -8.5 22.5q-6.5 8 -19 10.5q-12.5 2.5 -33.5 2.5q-7 0 -13.5 -0.5q-6.5 -0.5 -12.5 -0.5l0 32q60 11 124.5 17q64.5 6 132.5 6q69 0 123 -16q54 -16 91.5 -45q37.5 -29 57.5 -69q20 -40 20 -87q0 -40 -15.5 -74.5q-15.5 -34.5 -45 -60q-29.5 -25.5 -70.5 -40q-41 -14.5 -92 -14.5q-14 0 -27.5 2q-13.5 2 -27.5 5l0 33h11q66 0 96 35q30 35 30 111q0 88 -33.5 133q-33.5 45 -93.5 45q-34 0 -49 -18.5q-15 -18.5 -15 -60.5v-467q0 -24 2.5 -40q2.5 -16 11.5 -25.5q9 -9.5 27 -14q18 -4.5 49 -5.5l0 -34q-13 -1 -25 -1q-12 0 -23 0q-34 0 -62 1.5q-28 1.5 -50 1.5q-22 0 -49.5 -1.5q-27.5 -1.5 -60.5 -1.5q-10 0 -20 0q-10 0 -21 1z" />
<glyph unicode="&#81;" horiz-adv-x="881" d="M695 307q0 78 -23 148q-23 70 -61 119q-77 101 -187 101q-53 0 -97 -19q-44 -19 -75.5 -55q-31.5 -36 -49 -87.5q-17.5 -51.5 -17.5 -115.5q0 -53 10.5 -103.5q10.5 -50.5 31.5 -95.5q37 -81 97.5 -124.5q60.5 -43.5 132.5 -43.5q50 0 93.5 20.5q43.5 20.5 75.5 57.5q32 37 50.5 87.5q18.5 50.5 18.5 110.5zt0 0zM425 -19q-68 0 -128 20q-60 20 -110 60q-139 112 -139 284q0 73 27.5 138.5q27.5 65.5 79.5 119.5q58 60 128 88q70 28 158 28q79 0 145.5 -22.5q66.5 -22.5 116.5 -64.5q63 -53 96 -123q33 -70 33 -142q0 -115 -67.5 -209q-67.5 -94 -194.5 -149q59 -165 238 -165h9v-30q-45 -6 -85 -6q-102 0 -172 42q-70 42 -116 131z" />
<glyph unicode="&#82;" horiz-adv-x="735" d="M31 37h8q14 0 34 3.5q20 3.5 34 17.5q12 12 14.5 26.5q2.5 14.5 2.5 26.5v473q0 29 -4.5 42.5q-4.5 13.5 -9.5 18.5q-10 11 -30.5 13.5q-20.5 2.5 -49.5 4.5l0 34l42 1l106 -3l155 5h10q49 0 98 -14q49 -14 81 -40q20 -17 37 -44.5q17 -27.5 17 -67.5q0 -54 -37 -91q-22 -22 -55.5 -36.5q-33.5 -14.5 -63.5 -19.5q25 -20 43.5 -39.5q18.5 -19.5 34 -42q15.5 -22.5 30.5 -48.5q15 -26 33 -57q9 -15 14 -24q5 -9 8.5 -14.5q3.5 -5.5 6 -10.5q2.5 -5 7.5 -12q13 -21 23.5 -38.5q10.5 -17.5 30.5 -34.5q19 -17 37 -23q18 -6 39 -6h6v-35l-29 -1l-84 3h-6q-8 0 -18.5 -0.5q-10.5 -0.5 -21 -1q-10.5 -0.5 -20 -1.5q-9.5 -1 -13.5 -1q-19 24 -33.5 45.5q-14.5 21.5 -27 43q-12.5 21.5 -25 45q-12.5 23.5 -27.5 50.5q-18 34 -34 63q-16 29 -34 55q-16 23 -33 37q-17 14 -46 14h-29v-233q0 -26 3 -40.5q3 -14.5 9 -22.5q5 -6 14.5 -10.5q9.5 -4.5 21 -6.5q11.5 -2 22.5 -3q11 -1 20 -1l0 -34l-38 -1l-122 3l-129 -3h-22zM287 395q11 0 27 1q16 1 33.5 5.5q17.5 4.5 34.5 13q17 8.5 31 23.5q12 13 21.5 34.5q9.5 21.5 9.5 53.5q0 33 -10.5 58q-10.5 25 -26.5 41q-36 36 -103 36q-11 0 -23 -2.5q-12 -2.5 -20 -13.5q-9 -13 -9 -54l0 -196z" />
<glyph unicode="&#83;" horiz-adv-x="547" d="M411 545q-4 24 -14.5 49.5q-10.5 25.5 -26.5 42.5q-14 15 -38 28q-24 13 -60 13q-29 0 -49.5 -9q-20.5 -9 -34.5 -22q-16 -15 -24 -36q-8 -21 -8 -43q0 -25 9.5 -45.5q9.5 -20.5 25.5 -36.5q20 -20 47.5 -33.5q27.5 -13.5 59.5 -28.5q58 -28 80.5 -42.5q22.5 -14.5 27.5 -17.5q21 -16 35.5 -34q14.5 -18 25.5 -40q11 -21 16.5 -42.5q5.5 -21.5 5.5 -48.5q0 -48 -17.5 -85.5q-17.5 -37.5 -43.5 -63.5q-26 -26 -70.5 -47.5q-44.5 -21.5 -114.5 -21.5q-43 0 -89.5 10q-46.5 10 -91.5 30q-1 22 -3 54.5q-2 32.5 -7 77.5l40 0q6 -21 18.5 -44.5q12.5 -23.5 29.5 -41.5q20 -20 46.5 -32q26.5 -12 61.5 -12q35 0 61 10.5q26 10.5 43 27.5q17 16 27 37.5q10 21.5 10 48.5q0 28 -9.5 47q-9.5 19 -25.5 34q-29 27 -78 52q-26 14 -44.5 22.5q-18.5 8.5 -39.5 20.5q-17 10 -44 28.5q-27 18.5 -48 42.5q-21 25 -32.5 54.5q-11.5 29.5 -11.5 68.5q0 46 16.5 80.5q16.5 34.5 42.5 60.5q27 26 69 43.5q42 17.5 100 17.5q25 0 47 -3.5q22 -3.5 43 -10.5q39 -12 72 -32l0 -36l2 -92z" />
<glyph unicode="&#84;" horiz-adv-x="661" d="M60 745q5 -9 11.5 -18q6.5 -9 14.5 -14q14 -9 31.5 -11q17.5 -2 33.5 -2h9h313q17 0 44 3q27 3 48 17q18 11 30 34l35 -4q-5 -20 -8.5 -36.5q-3.5 -16.5 -5.5 -36.5q-1 -5 -2.5 -16.5q-1.5 -11.5 -3 -25q-1.5 -13.5 -3 -25q-1.5 -11.5 -1.5 -16.5l-3 -29l-37 4l1 11q0 4 0.5 8q0.5 4 0.5 9q0 15 -7 29q-7 14 -33 21q-14 4 -35 5.5q-21 1.5 -62 1.5h-49v-476q0 -55 4 -79.5q4 -24.5 14 -37.5q11 -14 27.5 -19q16.5 -5 37.5 -5h7v-34l-24 -1q-9 -1 -15 -1q-5 0 -12 0q-5 0 -12 0q-6 0 -17 1q-31 2 -47 3q-16 1 -29 1q-22 0 -36.5 -1.5q-14.5 -1.5 -36.5 -3.5q-4 0 -12 -0.5q-8 -0.5 -17 -1q-9 -0.5 -17 -0.5q-8 0 -12 0l-27 1v35q21 0 39 3q18 3 31 16q15 15 18.5 40q3.5 25 3.5 51v24v485h-47q-32 0 -65 -3.5q-33 -3.5 -56 -20.5q-12 -10 -20 -22.5q-8 -12.5 -14 -23.5l-17 -30l-31 9q16 79 20 121q4 42 5 64z" />
<glyph unicode="&#85;" horiz-adv-x="835" d="M58 698l127 -4l58 2q23 1 42 2q19 1 39 1h26v-33q-20 -1 -41 -3.5q-21 -2.5 -33 -14.5q-12 -12 -14.5 -29.5q-2.5 -17.5 -2.5 -28.5v-301q0 -52 1.5 -81.5q1.5 -29.5 6.5 -51.5q12 -45 48 -73q23 -17 55.5 -27q32.5 -10 74.5 -10q58 0 96 16.5q38 16.5 60 37.5q21 20 32.5 44q11.5 24 17 48q5.5 24 7 45.5q1.5 21.5 1.5 37.5v275q0 42 -3.5 61.5q-3.5 19.5 -11.5 29.5q-12 15 -34 19.5q-22 4.5 -42 5.5l0 33h14l111 -4l91 2h20v-34q-15 -1 -34.5 -4q-19.5 -3 -31.5 -9q-9 -5 -13 -11q-4 -6 -6 -19q-3 -14 -3.5 -26.5q-0.5 -12.5 -0.5 -25.5v-22v-214q0 -35 -1 -62q-1 -27 -3 -47.5q-2 -20.5 -4.5 -36.5q-2.5 -16 -6.5 -29q-13 -45 -38 -75.5q-25 -30.5 -56 -50.5q-46 -30 -97 -40q-51 -10 -102 -10q-18 0 -46 1.5q-28 1.5 -58.5 8.5q-30.5 7 -61 20q-30.5 13 -54.5 36q-23 23 -43.5 64q-20.5 41 -20.5 104v7l2 78q1 51 2 88.5q1 37.5 1.5 66.5q0.5 29 0.5 53q0 24 0 48q0 32 -2 53q-2 21 -13 33q-14 15 -39 19q-25 4 -42 4l0 33z" />
<glyph unicode="&#86;" horiz-adv-x="738" d="M107 580q-9 22 -16 35.5q-7 13.5 -15 21.5q-8 8 -18.5 12.5q-10.5 4.5 -26.5 7.5l-37 7v33q41 -2 73 -3.5q32 -1.5 58 -1.5q44 0 89.5 3.5q45.5 3.5 94.5 3.5l0 -34q-41 -1 -59.5 -9.5q-18.5 -8.5 -18.5 -32.5q0 -14 10 -38l170 -427l158 409q14 37 14 62q0 32 -87 37l0 33q7 1 13 1q6 0 12 0q29 0 52 -2.5q23 -2.5 41 -2.5q14 0 32.5 1.5q18.5 1.5 43.5 1.5q8 0 15 0q8 0 16 -1l0 -31q-31 -2 -50.5 -18q-19.5 -16 -33.5 -50l-243 -617l-41 0z" />
<glyph unicode="&#87;" horiz-adv-x="947" d="M-19 697q8 1 16 1q7 0 14 0q29 0 52.5 -2q23.5 -2 43.5 -2q29 0 54.5 3q25.5 3 48.5 3h6v-31q-40 -6 -40 -25q0 -3 2 -10q2 -7 7 -18l210 -466l68 147q-35 89 -60 157q-25 68 -45.5 113.5q-20.5 45.5 -38 70q-17.5 24.5 -38.5 26.5l-26 2v31q8 0 15 0.5q7 0.5 15 0.5q29 0 52 -1.5q23 -1.5 40 -1.5q29 0 58 2q29 2 58 2h19v-30l-32 -5q-23 -3 -23 -25q0 -7 2 -12q2 -5 4 -11l69 -175l65 146q8 18 11.5 32q3.5 14 3.5 21q0 21 -31 26l-19 2v29q7 1 13 1q6 0 12 0q19 0 34.5 -1.5q15.5 -1.5 29.5 -1.5q12 0 28.5 1q16.5 1 36.5 1h14v-31q-31 -1 -45.5 -12.5q-14.5 -11.5 -27.5 -38.5q-11 -23 -36.5 -80.5q-25.5 -57.5 -67.5 -148.5l86 -208l180 435q5 13 5 22q0 13 -7 21.5q-7 8.5 -17 10.5l-21 3v28q5 0 9.5 0.5q4.5 0.5 9.5 0.5q19 0 36 -1.5q17 -1.5 31 -1.5q13 0 31 1q18 1 42 1l0 -30q-20 -2 -34.5 -14q-14.5 -12 -26.5 -33q-12 -21 -24 -50q-12 -29 -28 -65q-79 -182 -130 -312.5q-51 -130.5 -76 -212.5l-37 0q-36 127 -96 260q-32 -65 -59.5 -129.5q-27.5 -64.5 -49.5 -130.5l-39 0q-87 208 -152.5 353q-65.5 145 -107.5 231q-11 23 -20.5 41.5q-9.5 18.5 -20.5 31.5q-11 13 -24 20q-13 7 -32 8z" />
<glyph unicode="&#88;" horiz-adv-x="721" d="M3 32q13 0 29 2.5q16 2.5 30 7.5q23 8 38.5 23q15.5 15 26.5 29l174 226l-192 280q-11 15 -22 28.5q-11 13.5 -30 23.5q-12 7 -26 10q-14 3 -28 4l0 33h14l131 -4q2 0 12.5 0.5q10.5 0.5 14.5 0.5l142 3v-34h-7q-14 0 -23.5 -1q-9.5 -1 -17.5 -3q-18 -5 -22.5 -12q-4.5 -7 -4.5 -12q0 -5 4 -12q4 -7 6 -10l127 -186l43 54q5 7 16 21q11 14 23 30.5q12 16.5 23.5 33.5q11.5 17 18.5 29q8 14 10.5 22.5q2.5 8.5 2.5 14.5q0 14 -6 18.5q-6 4.5 -14 6.5q-12 4 -19.5 4.5q-7.5 0.5 -15.5 1.5l-16 2v30h13l104 -3l130 3v-33l-18 -1q-25 -2 -43 -9q-18 -7 -29 -15q-16 -11 -28.5 -25.5q-12.5 -14.5 -24.5 -31.5q-23 -30 -42 -56q-19 -26 -42 -58l-58 -77l61 -92q38 -58 64.5 -96.5q26.5 -38.5 51.5 -71.5q22 -29 35.5 -44q13.5 -15 23.5 -24q20 -19 35.5 -24.5q15.5 -5.5 25.5 -5.5q3 0 5.5 0.5q2.5 0.5 4.5 0.5l0 -32l-37 -1l-112 3l-134 -4l-42 1v33l33 1q15 0 24 4q9 4 13.5 8.5q4.5 4.5 5.5 9q1 4.5 1 6.5q0 5 -2 11.5q-2 6.5 -4 11.5q-2 5 -5.5 11.5q-3.5 6.5 -10 18q-6.5 11.5 -18 28q-11.5 16.5 -28.5 40.5l-67 94q-12 -15 -30 -38q-18 -23 -36 -47.5q-18 -24.5 -34 -47.5q-16 -23 -25 -38q-13 -23 -16.5 -31.5q-3.5 -8.5 -3.5 -13.5q0 -16 11.5 -20q11.5 -4 19.5 -5l36 -3v-34h-18l-86 2l-114 -4l-32 0z" />
<glyph unicode="&#89;" horiz-adv-x="688" d="M185 34l25 1q34 1 49 18q10 11 12.5 30q2.5 19 2.5 43v169q0 7 -0.5 19q-0.5 12 -2.5 18q-2 5 -4.5 10q-2.5 5 -6.5 11q-17 27 -33.5 50.5q-16.5 23.5 -32.5 47.5q-16 24 -33 48.5q-17 24.5 -36 53.5q-18 27 -29.5 44.5q-11.5 17.5 -23.5 30.5q-11 11 -27 22q-16 11 -36 13l-20 2v34h26l119 -3l109 2q5 0 20 -0.5q15 -0.5 35 -2.5l0 -33q-5 1 -12 1q-7 0 -14 0q-22 0 -37 -3q-7 -2 -12 -5q-5 -3 -5 -12q0 -6 3.5 -14.5q3.5 -8.5 14.5 -25.5l144 -213q40 59 66 97.5q26 38.5 41 62.5q15 24 21.5 36q6.5 12 9.5 17q8 17 11 26q3 9 3 14q0 10 -8 15q-4 2 -11.5 3.5q-7.5 1.5 -24.5 1.5h-29v34l41 2l91 -3l78 2v-32q-11 -1 -23.5 -4q-12.5 -3 -22.5 -8q-17 -9 -27 -22.5q-10 -13.5 -20 -28.5q-9 -14 -28 -43q-19 -29 -40 -61.5q-21 -32.5 -40 -61q-19 -28.5 -28 -41.5q-7 -11 -13 -20q-6 -9 -12 -23q-8 -20 -10.5 -37q-2.5 -17 -2.5 -34v-148q0 -38 3.5 -52q3.5 -14 6.5 -19q11 -17 28.5 -21.5q17.5 -4.5 33.5 -5.5l20 -1v-35q-38 3 -66.5 4q-28.5 1 -52.5 1q-29 0 -53.5 -1q-24.5 -1 -51.5 -2l-85 -3z" />
<glyph unicode="&#90;" horiz-adv-x="678" d="M30 25q57 81 105.5 150.5q48.5 69.5 90.5 131q42 61.5 79.5 117.5q37.5 56 72.5 109q10 16 19 29.5q9 13.5 17 26.5q8 13 16.5 27.5q8.5 14.5 17.5 31.5l-184 0q-32 0 -61 -3q-29 -3 -52 -17q-21 -13 -32 -29.5q-11 -16.5 -19 -29.5l-17 -27l-39 14q19 58 29.5 104q10.5 46 16.5 78l37 7q8 -14 17 -21.5q9 -7.5 15 -11.5q9 -5 22.5 -8.5q13.5 -3.5 33.5 -5.5q20 -2 47.5 -3q27.5 -1 65.5 -1h81q27 0 52 0q25 0 50.5 0.5q25.5 0.5 54 1.5q28.5 1 62.5 3l0 -18q-18 -23 -31 -41.5q-13 -18.5 -24.5 -36q-11.5 -17.5 -22.5 -34.5q-11 -17 -24 -36l-57 -87q-15 -23 -30.5 -47q-15.5 -24 -30.5 -47q-12 -19 -26 -40q-14 -21 -36 -54q-22 -33 -55 -83q-33 -50 -83 -125q28 -2 49.5 -2.5q21.5 -0.5 43.5 -0.5h48h21q33 0 70 3q37 3 68 19q29 14 44.5 33q15.5 19 26.5 37l15 23l43 -9q-4 -11 -8 -22.5q-4 -11.5 -9 -28.5q-5 -17 -11.5 -40.5q-6.5 -23.5 -15.5 -57.5l-100 -3l-417 -3l-46 2z" />
<glyph unicode="&#91;" horiz-adv-x="384" d="M359 699v-28l-85 -1q-23 0 -36.5 -4q-13.5 -4 -21 -13q-7.5 -9 -9.5 -23.5q-2 -14.5 -2 -36.5v-725q0 -22 2 -36.5q2 -14.5 9.5 -23.5q7.5 -9 21 -13q13.5 -4 36.5 -4l85 -2v-27h-240l0 937z" />
<glyph unicode="&#92;" horiz-adv-x="419" d="M25 699h50l325 -792l-51 0z" />
<glyph unicode="&#93;" horiz-adv-x="384" d="M25 -238v27l85 2q23 0 36.5 4q13.5 4 21 13q7.5 9 9.5 23.5q2 14.5 2 36.5v725q0 22 -2 36.5q-2 14.5 -9.5 23.5q-7.5 9 -21 13q-13.5 4 -36.5 4l-85 1v28h240l0 -937z" />
<glyph unicode="&#94;" horiz-adv-x="1000" d="M797 438h-51l-247 194l-247 -194h-51l246 276l105 0z" />
<glyph unicode="&#95;" horiz-adv-x="500" d="M500 -236h-500v84l500 0z" />
<glyph unicode="&#96;" horiz-adv-x="500" d="M301 519l-153 81q-19 10 -32.5 21q-13.5 11 -13.5 32q0 13 4.5 21q4.5 8 9.5 12q11 11 29 11q17 0 33 -10.5q16 -10.5 34 -29.5l133 -138z" />
<glyph unicode="&#97;" horiz-adv-x="458" d="M269 213q-12 -5 -35 -13.5q-23 -8.5 -40 -15.5q-13 -5 -26 -12q-13 -7 -24 -16q-8 -7 -12 -13.5q-4 -6.5 -4 -20.5q0 -8 3.5 -20.5q3.5 -12.5 8.5 -21.5q16 -25 41 -25q15 0 28.5 7q13.5 7 16.5 9q10 7 22.5 18q12.5 11 20.5 19zM43 281q-2 3 -5 12q-3 9 -3 25q0 19 9 33q9 14 24 27q10 8 22 16q12 8 27 18q16 10 31.5 20q15.5 10 32.5 18q12 6 25 10.5q13 4.5 27 4.5q14 0 33 -4.5q19 -4.5 31 -9.5q14 -5 29 -12.5q15 -7.5 23 -15.5q19 -17 22.5 -43q3.5 -26 3.5 -47l-3 -227q0 -14 2 -19.5q2 -5.5 3 -7.5q5 -7 15 -7q11 0 20 7q9 7 14 16l18 -8q-5 -15 -12 -30.5q-7 -15.5 -15 -26.5q-17 -23 -37.5 -32.5q-20.5 -9.5 -42.5 -9.5q-18 0 -30 4.5q-12 4.5 -20 12.5q-12 11 -14.5 24.5q-2.5 13.5 -2.5 21.5v26q-14 -14 -30.5 -28.5q-16.5 -14.5 -36.5 -28.5q-19 -13 -40.5 -22.5q-21.5 -9.5 -45.5 -9.5q-24 0 -40.5 10.5q-16.5 10.5 -25.5 21.5q-6 7 -11 17q-5 10 -8.5 21q-3.5 11 -6 21.5q-2.5 10.5 -2.5 17.5q0 18 6 28.5q6 10.5 17 18.5q15 11 39.5 24q24.5 13 76.5 33q32 13 59 22.5q27 9.5 48 17.5l0 80q0 19 -8.5 30.5q-8.5 11.5 -16.5 16.5q-14 10 -32 14q-18 4 -35 4q-13 0 -26.5 -3q-13.5 -3 -23.5 -10q-17 -12 -17 -28q0 -5 2.5 -13.5q2.5 -8.5 4.5 -14.5z" />
<glyph unicode="&#98;" horiz-adv-x="528" d="M167 160q0 -10 1 -24q1 -14 4 -29.5q3 -15.5 9.5 -30q6.5 -14.5 17.5 -26.5q10 -10 23.5 -16q13.5 -6 30.5 -6q20 0 39.5 8.5q19.5 8.5 36.5 30.5q13 18 20.5 39.5q7.5 21.5 11 41q3.5 19.5 4 35q0.5 15.5 0.5 20.5q0 40 -10.5 78q-10.5 38 -34.5 64q-16 17 -38.5 27.5q-22.5 10.5 -45.5 10.5q-15 0 -33.5 -5.5q-18.5 -5.5 -35.5 -15.5zM7 717q10 3 19 5.5q9 2.5 20.5 7q11.5 4.5 27.5 10.5q16 6 39 15l51 20l8 -3q-1 -9 -2 -23q-1 -14 -1.5 -30q-0.5 -16 -1 -31.5q-0.5 -15.5 -0.5 -28.5v-269q23 22 57.5 42.5q34.5 20.5 76.5 20.5q32 0 63 -13q31 -13 56 -36q29 -27 47.5 -70.5q18.5 -43.5 18.5 -97.5q0 -28 -5.5 -57q-5.5 -29 -18.5 -55q-15 -31 -39 -56.5q-24 -25.5 -50 -42.5q-35 -23 -66.5 -30q-31.5 -7 -53.5 -7q-21 0 -38 3.5q-17 3.5 -31 8.5q-16 5 -23 7.5q-7 2.5 -15 5.5q-14 5 -25 5q-10 0 -16 -5q-3 -2 -5 -4.5q-2 -2.5 -4 -5.5l-11 -13l-33 -2q3 16 3.5 28q0.5 12 0.5 23v15v580q0 9 -1.5 19q-1.5 10 -8.5 18q-7 8 -21 13q-14 5 -18 7z" />
<glyph unicode="&#99;" horiz-adv-x="443" d="M416 108q-12 -26 -25 -42q-13 -16 -19 -22q-25 -26 -57 -41q-32 -15 -75 -15q-45 0 -79.5 15.5q-34.5 15.5 -57.5 38.5q-23 23 -42 64q-19 41 -19 101q0 60 20 109q20 49 53 83q23 24 62 45q39 21 95 21q28 0 53 -7q25 -7 45 -21q32 -23 32 -57q0 -20 -13 -34q-9 -9 -18.5 -11.5q-9.5 -2.5 -17.5 -2.5q-23 0 -40 16q-7 6 -12.5 14q-5.5 8 -12.5 19q-5 9 -9.5 15.5q-4.5 6.5 -9.5 11.5q-8 8 -16 10.5q-8 2.5 -17 2.5q-32 0 -57 -25q-20 -20 -32 -51q-12 -31 -12 -70q0 -46 16.5 -84.5q16.5 -38.5 42.5 -64.5q23 -24 49.5 -35q26.5 -11 52.5 -11q26 0 51 12q25 12 45 35z" />
<glyph unicode="&#100;" horiz-adv-x="557" d="M365 321q0 32 -9.5 52q-9.5 20 -19.5 31q-12 13 -29 20q-17 7 -35 7q-24 0 -42.5 -10.5q-18.5 -10.5 -32.5 -29.5q-26 -34 -33 -73.5q-7 -39.5 -7 -67.5q0 -39 6.5 -67q6.5 -28 15 -47.5q8.5 -19.5 17.5 -31.5q9 -12 14 -17q18 -18 38 -25.5q20 -7.5 40 -7.5q20 0 40.5 9.5q20.5 9.5 36.5 20.5zM312 717q19 6 28 9.5q9 3.5 25 8.5q21 6 38 13q8 3 15 5.5q7 2.5 15 5.5l45 16l-2 -669q0 -17 3 -24q3 -7 5 -9q5 -5 11.5 -6.5q6.5 -1.5 12.5 -1.5q10 0 20 2l0 -31q-59 -16 -97.5 -29q-38.5 -13 -57.5 -21l-11 4q3 33 3 62q-8 -8 -21.5 -19q-13.5 -11 -31.5 -21q-18 -10 -40 -17q-22 -7 -47 -7q-40 0 -72 14q-32 14 -55 37q-23 24 -41 64q-18 40 -18 98q0 34 8 68.5q8 34.5 25 66.5q15 29 39 55q24 26 54 44q26 15 53.5 22.5q27.5 7.5 53.5 7.5q23 0 47.5 -6q24.5 -6 45.5 -14l0 185v7q0 13 -5 23q-5 10 -15 15l-33 22z" />
<glyph unicode="&#101;" horiz-adv-x="456" d="M244 312q11 0 24 2q13 2 21 8q9 7 11.5 15.5q2.5 8.5 2.5 17.5q0 20 -6.5 33q-6.5 13 -14.5 21q-11 11 -23.5 16.5q-12.5 5.5 -24.5 5.5q-14 0 -27.5 -5q-13.5 -5 -24.5 -16q-17 -16 -27.5 -45q-10.5 -29 -12.5 -53zM138 278v-13q0 -50 16 -85.5q16 -35.5 37 -55.5q20 -19 48 -29q28 -10 57 -10q15 0 28 3q13 3 28 11q20 10 36 29l22 -16q-11 -26 -29 -49q-18 -23 -38 -39q-24 -18 -53 -27q-29 -9 -61 -9q-42 0 -71.5 14q-29.5 14 -50.5 34q-11 10 -22 25q-11 15 -21 36q-10 21 -16 48.5q-6 27.5 -6 62.5q0 63 20 113.5q20 50.5 54 84.5q21 21 55 40q34 19 84 19q36 0 63.5 -11q27.5 -11 46.5 -28q18 -17 31.5 -46q13.5 -29 13.5 -70q0 -8 0 -16q0 -8 -2 -16z" />
<glyph unicode="&#102;" horiz-adv-x="354" d="M38 33q21 3 34.5 7q13.5 4 21 10.5q7.5 6.5 10 17.5q2.5 11 2.5 28v298h-69v46h69v26q0 74 15.5 131.5q15.5 57.5 41.5 97q26 39.5 61.5 60q35.5 20.5 75.5 20.5q31 0 49 -15.5q18 -15.5 18 -39.5q0 -22 -11.5 -34.5q-11.5 -12.5 -31.5 -12.5q-13 0 -23 6q-10 6 -19.5 13.5q-9.5 7.5 -19 14q-9.5 6.5 -19.5 6.5q-27 0 -27 -45q0 -13 1 -69.5q1 -56.5 3 -158.5l103 0v-46h-101v-296q0 -15 0.5 -25.5q0.5 -10.5 4 -17.5q3.5 -7 10.5 -11q7 -4 21 -6l38 -6v-32q-45 2 -76.5 3q-31.5 1 -48.5 1q-23 0 -56 -1.5q-33 -1.5 -77 -1.5z" />
<glyph unicode="&#103;" horiz-adv-x="536" d="M167 329q0 -32 9 -64.5q9 -32.5 27 -52.5q11 -11 26 -18.5q15 -7.5 32 -7.5q16 0 29 6q13 6 22 15q10 10 18 29.5q8 19.5 8 53.5q0 29 -7.5 60q-7.5 31 -24.5 52q-9 11 -24 21q-15 10 -38 10q-17 0 -28 -5.5q-11 -5.5 -18 -11.5q-11 -10 -21 -30q-10 -20 -10 -57zt0 0zM200 -45q-23 -9 -40.5 -29q-17.5 -20 -17.5 -51q0 -30 22 -55q16 -18 45 -30q29 -12 68 -12q39 0 69 11.5q30 11.5 48 31.5q11 12 18 27q7 15 7 33q0 14 -4 28q-4 14 -13 24q-14 16 -37 20q-23 4 -47 4h-19zM520 363h-78q5 -14 6.5 -24q1.5 -10 1.5 -19q0 -25 -9.5 -52.5q-9.5 -27.5 -32.5 -51.5q-29 -31 -71.5 -45q-42.5 -14 -89.5 -14q-24 0 -46 3q-5 -3 -14.5 -10.5q-9.5 -7.5 -15.5 -12.5q-6 -6 -11 -14.5q-5 -8.5 -5 -19.5q0 -18 17 -28q11 -7 27.5 -9.5q16.5 -2.5 30.5 -2.5q5 0 17.5 0.5q12.5 0.5 20.5 1.5q13 1 20.5 2q7.5 1 21.5 2q8 1 22 1.5q14 0.5 19 0.5q41 0 72.5 -11.5q31.5 -11.5 51.5 -31.5q16 -16 26.5 -39.5q10.5 -23.5 10.5 -55.5q0 -25 -9 -55.5q-9 -30.5 -37 -59.5q-12 -13 -30.5 -26.5q-18.5 -13.5 -44 -24q-25.5 -10.5 -58 -17.5q-32.5 -7 -74.5 -7q-22 0 -47 2q-25 2 -49.5 8q-24.5 6 -46 16.5q-21.5 10.5 -37.5 26.5q-28 28 -28 72q0 11 3 21q3 10 14 20q8 7 18 12.5q10 5.5 24 11.5q14 7 26 12q12 5 26 11q-19 3 -43.5 12.5q-24.5 9.5 -41.5 26.5q-14 14 -19 29.5q-5 15.5 -5 32.5q0 10 2 21.5q2 11.5 7 19.5q3 5 11.5 13.5q8.5 8.5 30.5 20.5q22 11 34 16.5q12 5.5 30 17.5q-23 6 -45 18.5q-22 12.5 -36 26.5q-11 11 -22 32.5q-11 21.5 -11 53.5q0 27 11.5 57q11.5 30 40.5 56q29 27 67.5 41q38.5 14 82.5 14q25 0 60.5 -8q35.5 -8 80.5 -34l123 0z" />
<glyph unicode="&#104;" horiz-adv-x="595" d="M206 775v-392q16 12 40.5 29q24.5 17 45.5 28q20 11 42 18q22 7 48 7q33 0 54 -11.5q21 -11.5 32 -23.5q22 -23 28 -48.5q6 -25.5 6 -46.5v-238q0 -23 3.5 -33q3.5 -10 8.5 -15q7 -7 17 -9q10 -2 18 -3l15 -1v-33h-115q-13 0 -19.5 -0.5q-6.5 -0.5 -16 -1q-9.5 -0.5 -27 -1q-17.5 -0.5 -53.5 -0.5l0 32l20 2q8 1 16.5 3q8.5 2 13.5 7q5 5 6.5 12q1.5 7 1.5 14v5v238q0 24 -8 37q-8 13 -13 18q-22 20 -59 20q-29 0 -57 -14q-28 -14 -48 -31l0 -236q0 -26 2 -38.5q2 -12.5 7 -19.5q8 -11 21 -13.5q13 -2.5 23 -2.5h8v-32l-78 2l-141 -3h-18v32q10 0 26.5 3q16.5 3 24.5 9q10 7 12 15.5q2 8.5 2 15.5v545q0 8 -0.5 14.5q-0.5 6.5 -3.5 14.5q-2 6 -5 8.5q-3 2.5 -8 5.5l-36 23v21q17 6 56 22q39 16 99 46z" />
<glyph unicode="&#105;" horiz-adv-x="307" d="M80 661q0 27 17.5 50q17.5 23 53.5 23q32 0 52.5 -20.5q20.5 -20.5 20.5 -52.5q0 -32 -21 -51q-21 -19 -52 -19q-30 0 -50.5 20.5q-20.5 20.5 -20.5 49.5zt0 0zM211 83q0 -10 1 -21.5q1 -11.5 8 -18.5q6 -6 17 -8q11 -2 29 -3l0 -32l-83 3l-116 -3l-30 1v32h9q8 0 18 1.5q10 1.5 17 6.5q10 8 12 22q2 14 2 25v238v4q0 11 -3 21q-3 10 -19 17l-30 13v22q44 14 82.5 30q38.5 16 69.5 32l16 0z" />
<glyph unicode="&#106;" horiz-adv-x="288" d="M63 661q0 27 17.5 50q17.5 23 53.5 23q32 0 52.5 -20.5q20.5 -20.5 20.5 -52.5q0 -32 -21 -51q-21 -19 -52 -19q-30 0 -50.5 20.5q-20.5 20.5 -20.5 49.5zt0 0zM6 -225q17 7 31.5 18.5q14.5 11.5 24.5 26.5q16 24 19.5 53.5q3.5 29.5 3.5 58.5v393q0 23 -5 31q-2 3 -6.5 6.5q-4.5 3.5 -8.5 5.5l-30 16v22q35 12 70 26.5q35 14.5 87 39.5l8 -4q-3 -32 -3.5 -57.5q-0.5 -25.5 -0.5 -45.5v-29v-316q0 -70 -10 -114q-8 -32 -24 -59.5q-16 -27.5 -49 -52.5q-21 -16 -49 -29.5q-28 -13.5 -56 -21.5z" />
<glyph unicode="&#107;" horiz-adv-x="558" d="M206 775v-525q17 12 37 27.5q20 15.5 39.5 32q19.5 16.5 36 32.5q16.5 16 27.5 29q14 17 14 26q0 9 -5.5 13q-5.5 4 -8.5 6q-8 3 -14.5 3.5q-6.5 0.5 -14.5 1.5l-18 1v30l79 -1l40 1q8 0 24 1.5q16 1.5 36 1.5h25v-30q-8 -1 -22.5 -2.5q-14.5 -1.5 -25.5 -4.5q-13 -4 -19.5 -8.5q-6.5 -4.5 -12.5 -11.5q-14 -15 -27 -29q-13 -14 -37 -37l-25 -24l139 -231q4 -7 8.5 -14.5q4.5 -7.5 11.5 -12.5q8 -7 16.5 -10q8.5 -3 18.5 -5l13 -3v-32l-96 3l-103 -3l-30 1v31q13 0 25 5q13 7 13 19q0 3 -1 7.5q-1 4.5 -5 11.5l-93 164l-45 -31v-101q0 -23 1.5 -35.5q1.5 -12.5 5.5 -19.5q8 -13 20.5 -16q12.5 -3 26.5 -3l0 -32l-93 3l-122 -4h-15v32l19 2q9 1 19.5 4q10.5 3 16.5 9q7 6 8.5 14q1.5 8 1.5 14v545q0 6 -0.5 15q-0.5 9 -2.5 13q-2 6 -8.5 10.5q-6.5 4.5 -13.5 9.5l-28 18l-1 21q38 14 78 31q16 8 38 18q22 10 40 19z" />
<glyph unicode="&#108;" horiz-adv-x="307" d="M215 772q-3 -54 -3.5 -79q-0.5 -25 -0.5 -34v-541q0 -29 2 -47.5q2 -18.5 11 -26.5q9 -8 23 -9.5q14 -1.5 21 -1.5h4v-32l-86 2l-139 -3h-17v32q11 0 27.5 3q16.5 3 24.5 10q10 9 11.5 25q1.5 16 1.5 22v542q0 15 -2 22q-2 7 -4 10q-5 8 -20 15.5q-15 7.5 -23 9.5l0 26q20 6 59 19q39 13 102 39z" />
<glyph unicode="&#109;" horiz-adv-x="875" d="M38 33h7q30 0 40 14q10 14 10 48v234q0 16 -2.5 23.5q-2.5 7.5 -14.5 13.5l-30 14v23q33 9 69 24q36 15 75 38l14 0q0 -19 -0.5 -41.5q-0.5 -22.5 -1.5 -50.5q51 43 94.5 65q43.5 22 85.5 22q84 0 109 -92q49 45 90 68.5q41 23.5 81 23.5q54 0 86 -32q32 -32 32 -87v-241q0 -19 1.5 -32q1.5 -13 7 -21q5.5 -8 16 -12q10.5 -4 29.5 -4l0 -32q-24 2 -46.5 3q-22.5 1 -43.5 1q-8 0 -39.5 -1q-31.5 -1 -88.5 -2l0 33q19 0 30 4q11 4 16.5 13q5.5 9 7 24q1.5 15 1.5 38v174q0 49 -19 72.5q-19 23.5 -62 23.5q-44 0 -99 -38l0 -253q0 -33 9.5 -46q9.5 -13 42.5 -13h4v-31q-23 1 -45 1q-21 0 -41 0q-23 0 -49.5 -1q-26.5 -1 -58.5 -1h-22v32h7q30 0 37 9.5q7 9.5 7 40.5v199q0 101 -82 101q-43 0 -98 -38l0 -246q0 -36 11 -49.5q11 -13.5 46 -14.5l0 -32q-8 0 -14.5 -0.5q-6.5 -0.5 -14.5 -0.5q-21 0 -40.5 1q-19.5 1 -39.5 1q-15 0 -39.5 -1.5q-24.5 -1.5 -57.5 -1.5l-17 0z" />
<glyph unicode="&#110;" horiz-adv-x="598" d="M44 406q18 5 37 11.5q19 6.5 39 15.5q18 8 40.5 19.5q22.5 11.5 38.5 19.5l10 -5q-2 -14 -2.5 -26.5q-0.5 -12.5 -0.5 -27.5v-30q14 11 33 24q19 13 34 22q22 13 49 24.5q27 11.5 59 11.5q28 0 51 -9q23 -9 39 -25q16 -17 25.5 -40.5q9.5 -23.5 9.5 -55.5v-229q0 -26 1.5 -37q1.5 -11 5.5 -16q7 -11 18.5 -14q11.5 -3 20.5 -4l15 -1v-33l-83 3l-147 -4v32q9 0 26 2.5q17 2.5 24 9.5q5 5 6.5 12.5q1.5 7.5 1.5 13.5v5v238q0 32 -18 52q-2 2 -17.5 12.5q-15.5 10.5 -47.5 10.5q-25 0 -50 -11q-14 -6 -29 -15.5q-15 -9.5 -27 -18.5l0 -236q0 -26 2 -38.5q2 -12.5 7 -19.5q5 -6 15.5 -11q10.5 -5 30.5 -5h6v-32l-85 2l-135 -3h-17v32l13 1q11 1 22.5 4q11.5 3 17.5 8q8 7 10 16q2 9 2 14v249q0 8 -1 16.5q-1 8.5 -7 16.5q-5 8 -14 12q-9 4 -19 8l-10 4z" />
<glyph unicode="&#111;" horiz-adv-x="550" d="M391 172q0 42 -6 81.5q-6 39.5 -19 72.5q-8 20 -19 39.5q-11 19.5 -28 33.5q-13 11 -27.5 17.5q-14.5 6.5 -34.5 6.5q-20 0 -35.5 -7.5q-15.5 -7.5 -26.5 -19.5q-35 -38 -35 -117q0 -27 4 -59q4 -32 10 -55q7 -25 19 -51q12 -26 32 -46q13 -14 31 -24q18 -10 43 -10q26 0 41.5 10.5q15.5 10.5 24.5 21.5q17 21 21.5 50q4.5 29 4.5 56zt0 0zM279 465q51 0 93.5 -18.5q42.5 -18.5 71.5 -47.5q28 -28 46.5 -70q18.5 -42 18.5 -96q0 -22 -3.5 -42.5q-3.5 -20.5 -11.5 -43.5q-10 -27 -26 -52q-16 -25 -41 -47q-34 -29 -74 -44.5q-40 -15.5 -82 -15.5q-45 0 -88.5 17q-43.5 17 -76.5 51q-29 29 -46.5 71.5q-17.5 42.5 -17.5 93.5q0 24 4 45q4 21 10 39q11 30 30 58.5q19 28.5 45 49.5q32 26 70.5 39t77.5 13z" />
<glyph unicode="&#112;" horiz-adv-x="561" d="M199 86q35 -54 94 -54q53 0 81.5 42q28.5 42 28.5 123q0 88 -35.5 137q-35.5 49 -90.5 49q-34 0 -78 -25zM33 -229q20 4 31 9.5q11 5.5 16.5 14.5q5.5 9 6.5 22q1 13 1 32v477q0 23 -8.5 34q-8.5 11 -35.5 25l0 20q53 18 155 67l0 -84l74 50q17 12 34 19.5q17 7.5 40 7.5q35 0 66 -16q31 -16 54.5 -44.5q23.5 -28.5 37.5 -68.5q14 -40 14 -88q0 -100 -55 -167q-35 -43 -81 -66q-46 -23 -94 -23q-14 0 -36 0.5q-22 0.5 -54 1.5l0 -150q0 -20 3 -32.5q3 -12.5 10.5 -20q7.5 -7.5 21.5 -11.5q14 -4 36 -5l0 -30q-25 1 -46.5 1.5q-21.5 0.5 -41.5 0.5q-32 0 -69 -2q-37 -2 -80 -2z" />
<glyph unicode="&#113;" horiz-adv-x="537" d="M358 318q0 48 -27 76.5q-27 28.5 -67 28.5q-49 0 -79.5 -44q-30.5 -44 -30.5 -125q0 -46 10 -83q10 -37 27.5 -62.5q17.5 -25.5 41 -39q23.5 -13.5 50.5 -13.5q35 0 75 28zM469 -148q0 -35 5 -49q5 -14 28 -17l20 -3v-31q-71 3 -103 3q-23 0 -48 -2q-25 -2 -52 -2q-8 0 -16 0q-7 0 -15 1l0 29q43 1 56.5 13q13.5 12 13.5 47v213q-66 -60 -129 -60q-41 0 -75 15q-34 15 -59.5 42.5q-25.5 27.5 -39.5 65.5q-14 38 -14 83q0 55 20.5 104q20.5 49 60.5 88q37 35 81 54q44 19 90 19q39 0 65.5 -9.5q26.5 -9.5 42.5 -9.5q19 0 40 26l28 -8z" />
<glyph unicode="&#114;" horiz-adv-x="409" d="M208 345l24 30q16 20 29 36q13 16 30 30q12 10 27.5 17q15.5 7 33.5 7q24 0 42 -15q5 -5 12 -16q7 -11 7 -31q0 -14 -4.5 -25q-4.5 -11 -11.5 -18q-8 -8 -19 -11.5q-11 -3.5 -23 -3.5q-9 0 -15.5 2q-6.5 2 -12.5 4q-9 4 -13 6q-4 2 -10 4q-10 5 -21 5q-11 0 -20.5 -5.5q-9.5 -5.5 -16.5 -11.5q-8 -8 -17.5 -19.5q-9.5 -11.5 -17.5 -22.5l0 -213q0 -8 1.5 -21q1.5 -13 11.5 -23q9 -9 22 -11.5q13 -2.5 24 -3.5l14 -1v-33l-95 3l-144 -4h-15v32l17 1q9 1 19 4q10 3 17 8q8 8 10 16.5q2 8.5 2 14.5v252q0 24 -5 32q-3 4 -8 6q-5 2 -9 4l-36 12v24q15 5 26 8.5q11 3.5 30 11.5q17 7 33 13q16 6 33 13q8 3 14.5 6q6.5 3 14.5 6l20 8z" />
<glyph unicode="&#115;" horiz-adv-x="382" d="M76 130q5 -19 15.5 -42.5q10.5 -23.5 26.5 -37.5q11 -10 26.5 -17.5q15.5 -7.5 38.5 -7.5q10 0 22.5 3q12.5 3 23.5 14q9 9 12 19q3 10 3 22q0 25 -17 49q-11 16 -25 26q-14 10 -27 18q-33 22 -53 35.5q-20 13.5 -34 26.5q-18 17 -27.5 37q-9.5 20 -9.5 49q0 34 12 57.5q12 23.5 27 39.5q23 24 51.5 34q28.5 10 60.5 10q38 0 69.5 -11q31.5 -11 49.5 -22l0 -97l-30 -2q-6 18 -17 38q-11 20 -25 34q-11 11 -24.5 17q-13.5 6 -30.5 6q-21 0 -36 -12q-6 -5 -11.5 -13q-5.5 -8 -5.5 -22q0 -21 10.5 -35.5q10.5 -14.5 24.5 -25.5q19 -16 38 -28q19 -12 38 -26q23 -17 35.5 -28q12.5 -11 17.5 -18q17 -20 23 -40.5q6 -20.5 6 -45.5q0 -32 -11.5 -56.5q-11.5 -24.5 -29.5 -42.5q-23 -23 -56 -35q-33 -12 -66 -12q-29 0 -63 11q-34 11 -64 31l0 25q0 50 -3 74z" />
<glyph unicode="&#116;" horiz-adv-x="365" d="M26 410q56 45 92.5 88.5q36.5 43.5 59.5 78.5l19 0v-137h151v-46h-151v-230q0 -7 0.5 -18q0.5 -11 2.5 -23.5q2 -12.5 7 -24q5 -11.5 13 -20.5q6 -7 17.5 -12.5q11.5 -5.5 30.5 -5.5q23 0 44 13q8 5 15.5 11q7.5 6 13.5 12l16 -13q-9 -17 -22.5 -35.5q-13.5 -18.5 -30.5 -30.5q-26 -19 -53 -24q-27 -5 -48 -5q-12 0 -36 3.5q-24 3.5 -42 18.5q-23 19 -29 50.5q-6 31.5 -6 68.5l1 196q0 26 -2 36.5q-2 10.5 -7 15.5q-5 6 -14 8.5q-9 2.5 -17 2.5l-25 -1z" />
<glyph unicode="&#117;" horiz-adv-x="573" d="M187 171q0 -6 0.5 -16.5q0.5 -10.5 2.5 -22.5q2 -12 7 -24q5 -12 13 -21q7 -8 19.5 -14.5q12.5 -6.5 34.5 -6.5q17 0 33 4.5q16 4.5 30 12.5q12 7 25.5 16q13.5 9 23.5 17l0 243q0 8 -1 18.5q-1 10.5 -7 16.5q-5 5 -16.5 8q-11.5 3 -40.5 3l0 32q63 5 105 10.5q42 5.5 71 10.5l0 -334q0 -19 3 -26.5q3 -7.5 5 -9.5q6 -6 16 -6q1 0 8.5 0.5q7.5 0.5 24.5 5.5l0 -31q-23 -9 -58.5 -24.5q-35.5 -15.5 -85.5 -41.5l-24 -3v92q-17 -17 -42 -36q-25 -19 -45 -31q-22 -13 -43 -19q-21 -6 -46 -6q-30 0 -50.5 8.5q-20.5 8.5 -33.5 20.5q-14 13 -22 31q-8 18 -12 36q-4 18 -5 35.5q-1 17.5 -1 29.5v215q0 8 -1.5 15q-1.5 7 -5.5 12q-5 6 -11.5 8q-6.5 2 -13.5 3q-5 1 -13.5 1.5q-8.5 0.5 -13.5 0.5l0 33q31 2 74 7q43 5 96 14z" />
<glyph unicode="&#118;" horiz-adv-x="518" d="M231 -9q-66 166 -107.5 263.5q-41.5 97.5 -57.5 129.5q-7 14 -16.5 21.5q-9.5 7.5 -29.5 12.5l-28 6v28q6 0 12 0.5q6 0.5 12 0.5q25 0 48 -1.5q23 -1.5 46 -1.5q24 0 50 1.5q26 1.5 56 1.5h24v-33l-25 -2q-30 -3 -30 -20q0 -5 2.5 -13q2.5 -8 7.5 -19l94 -229l91 222q4 10 6 20q2 10 2 16q0 22 -32 25l-22 2v31q7 0 13 0.5q6 0.5 12 0.5q24 0 44.5 -1.5q20.5 -1.5 37.5 -1.5q15 0 28 0q13 0 24 1l0 -30q-20 -1 -32.5 -9q-12.5 -8 -22.5 -23.5q-10 -15.5 -19 -38.5q-9 -23 -22 -54q-30 -72 -63 -148q-33 -76 -65 -161z" />
<glyph unicode="&#119;" horiz-adv-x="733" d="M278 141q17 35 34 79q17 44 38 96v63q-26 15 -32.5 22.5q-6.5 7.5 -16.5 11.5q-10 4 -24 4.5q-14 0.5 -35 0.5q-32 0 -45.5 -4q-13.5 -4 -13.5 -15q0 -6 3 -15zM87 351q-13 34 -22.5 49.5q-9.5 15.5 -33.5 19.5l-26 4v31q8 1 16 1q8 0 18 0q39 0 95 -2.5q56 -2.5 130 -2.5q45 0 87 1.5q42 1.5 84 1.5q14 0 28 -0.5q14 -0.5 29 -1.5l0 -31l-29 -3q-29 -3 -29 -23q0 -6 4 -16.5q4 -10.5 9 -25.5l75 -202q51 112 74 174q23 62 23 73q0 19 -25 22l-22 2v30q6 1 11 1q6 0 11 0q17 0 33.5 -1q16.5 -1 32.5 -1q11 0 67 3l0 -32q-23 0 -36.5 -7.5q-13.5 -7.5 -23.5 -21.5q-10 -14 -18 -36q-8 -22 -19 -50q-28 -72 -63.5 -150q-35.5 -78 -66.5 -169l-31 3l-101 274q-34 -83 -63.5 -151.5q-29.5 -68.5 -47.5 -125.5l-33 3z" />
<glyph unicode="&#120;" horiz-adv-x="540" d="M25 34l18 2q8 1 16.5 3.5q8.5 2.5 16.5 6.5q17 8 28 19q11 11 22 25l96 114l-110 168q-13 19 -19.5 26q-6.5 7 -8.5 9q-11 8 -24.5 10.5q-13.5 2.5 -24.5 2.5h-4v33h20l79 -3l108 5l36 -1v-33l-15 -1q-5 0 -12.5 -1.5q-7.5 -1.5 -12.5 -3.5q-5 -2 -8.5 -5q-3.5 -3 -3.5 -9q0 -8 5 -16q5 -8 8 -13l58 -90l56 68q13 16 18 26q7 13 7 22q0 10 -9 15q-4 2 -9.5 3.5q-5.5 1.5 -10.5 2.5l-15 2v29l25 1l59 -2l87 3v-33l-10 -1q-20 -2 -31 -5.5q-11 -3.5 -13 -4.5q-14 -6 -22 -15q-8 -9 -16 -19q-5 -6 -10 -12.5q-5 -6.5 -10 -12.5q-3 -4 -5.5 -7q-2.5 -3 -5.5 -7l-62 -80l115 -168q8 -12 17 -23q9 -11 22 -19q13 -8 23.5 -10.5q10.5 -2.5 17.5 -2.5l0 -32l-118 6l-123 -3v32q9 0 20.5 1.5q11.5 1.5 16.5 3.5q14 5 14 16q0 8 -6 18q-6 10 -10 15l-62 86l-69 -88q-6 -8 -10.5 -15q-4.5 -7 -4.5 -15q0 -8 4 -12.5q4 -4.5 8 -6.5q6 -3 17.5 -4q11.5 -1 15.5 -1l0 -32l-84 2l-79 -2l-16 0z" />
<glyph unicode="&#121;" horiz-adv-x="508" d="M4 451l103 -1l108 3l33 -1v-31l-13 -1q-14 -1 -20.5 -2.5q-6.5 -1.5 -10.5 -3.5q-11 -6 -11 -20q0 -9 4.5 -23q4.5 -14 6.5 -19l90 -203l81 206q6 14 8 23q2 9 2 15q0 5 -1.5 10q-1.5 5 -7.5 10q-5 4 -12.5 5.5q-7.5 1.5 -14.5 2.5l-10 1v30h13l66 -2l84 4v-32l-14 -1q-15 -1 -26 -8.5q-11 -7.5 -19 -15.5q-11 -12 -19.5 -30q-8.5 -18 -12.5 -29l-129 -329q-20 -51 -35.5 -88q-15.5 -37 -28.5 -64.5q-13 -27.5 -25.5 -46.5q-12.5 -19 -25.5 -32q-21 -20 -41 -27.5q-20 -7.5 -37 -7.5q-11 0 -26 2.5q-15 2.5 -27 15.5q-6 7 -10 16.5q-4 9.5 -4 20.5q0 12 4 20.5q4 8.5 9 13.5q8 8 20 13q12 5 27 5q5 0 10.5 -0.5q5.5 -0.5 10.5 -1.5q8 -1 10 -1.5q2 -0.5 11 -2.5q8 -2 12 -2q4 0 4 0q19 0 28.5 13q9.5 13 13.5 21l38 84q8 17 9.5 29q1.5 12 1.5 16q0 8 -3 18q-3 10 -12 31l-125 287q-14 34 -30 53q-10 11 -18 16q-8 5 -15 7l-24 5z" />
<glyph unicode="&#122;" horiz-adv-x="459" d="M26 13l244 397l-66 2h-7q-12 0 -35 -1.5q-23 -1.5 -40 -8.5q-23 -9 -37 -26.5q-14 -17.5 -21 -30.5l-31 9q6 17 10 30.5q4 13.5 8 30.5q2 7 4 16.5q2 9.5 4.5 19q2.5 9.5 4 17q1.5 7.5 2.5 11.5l29 0q7 -16 18 -22q10 -6 26.5 -7.5q16.5 -1.5 36.5 -1.5h242v-17q-89 -132 -148.5 -229q-59.5 -97 -91.5 -154q13 -2 37.5 -5q24.5 -3 66.5 -3q17 0 38 2.5q21 2.5 39 13.5q15 10 28.5 27.5q13.5 17.5 21.5 37.5l31 -9l-14 -46q-2 -6 -3.5 -10.5q-1.5 -4.5 -3.5 -11.5q-2 -7 -4.5 -17q-2.5 -10 -6.5 -26l-149 2l-224 -3z" />
<glyph unicode="&#123;" horiz-adv-x="500" d="M415 712q-34 0 -55.5 -7q-21.5 -7 -33.5 -22.5q-12 -15.5 -16 -40q-4 -24.5 -4 -59.5v-67q0 -47 -4.5 -82q-4.5 -35 -18 -59.5q-13.5 -24.5 -39 -40q-25.5 -15.5 -67.5 -24.5q42 -9 67.5 -24.5q25.5 -15.5 39 -40q13.5 -24.5 18 -59.5q4.5 -35 4.5 -82v-67q0 -35 4 -59.5q4 -24.5 16 -39.5q12 -15 33.5 -22q21.5 -7 55.5 -7l0 -28h-5q-55 0 -91.5 8.5q-36.5 8.5 -58.5 28.5q-22 20 -31 52q-9 32 -9 80v98q0 38 -6 64q-6 26 -21 43.5q-15 17.5 -40.5 26.5q-25.5 9 -65.5 12l0 33q40 4 66 13q26 9 41 25.5q15 16.5 20.5 43q5.5 26.5 5.5 64.5v98q0 48 9 80.5q9 32.5 31.5 52q22.5 19.5 60 28q37.5 8.5 94.5 8.5z" />
<glyph unicode="&#124;" horiz-adv-x="500" d="M294 -236h-87v1000l87 0z" />
<glyph unicode="&#125;" horiz-adv-x="500" d="M281 473q0 -38 5.5 -64.5q5.5 -26.5 20.5 -43q15 -16.5 41 -25.5q26 -9 66 -13l0 -33q-40 -3 -66 -12q-26 -9 -41 -26.5q-15 -17.5 -20.5 -43.5q-5.5 -26 -5.5 -64v-98q0 -48 -9 -80q-9 -32 -31 -52q-22 -20 -59 -28.5q-37 -8.5 -92 -8.5h-5v28q34 0 55.5 7q21.5 7 33.5 22q12 15 16 39.5q4 24.5 4 59.5v67q0 47 4 82q4 35 17.5 59.5q13.5 24.5 39 40q25.5 15.5 68.5 24.5q-43 9 -68.5 24.5q-25.5 15.5 -39 40.5q-13.5 25 -17.5 59.5q-4 34.5 -4 81.5v67q0 35 -4 59.5q-4 24.5 -16 40q-12 15.5 -33.5 22.5q-21.5 7 -55.5 7l0 28h5q55 0 92 -8.5q37 -8.5 59 -28.5q22 -20 31 -52q9 -32 9 -80z" />
<glyph unicode="&#126;" horiz-adv-x="833" d="M747 293q-49 -34 -95 -51.5q-46 -17.5 -91 -17.5q-44 0 -93 17q-52 17 -98.5 33q-46.5 16 -94.5 16q-44 0 -89 -20q-45 -20 -99 -58l0 91q103 70 189 70q43 0 77.5 -9q34.5 -9 65.5 -20q37 -13 71.5 -24.5q34.5 -11.5 71.5 -11.5q44 0 89 19q45 19 96 56z" />
<glyph unicode="&#160;" horiz-adv-x="250" />
<glyph unicode="&#161;" horiz-adv-x="359" d="M253 640q0 -32 -23 -55q-23 -23 -55 -23q-32 0 -55 23q-23 23 -23 55q0 32 23 55q23 23 55 23q31 0 54.5 -23.5q23.5 -23.5 23.5 -54.5zt0 0zM243 103q2 -10 3 -20q1 -10 1 -20q0 -29 -19 -47q-19 -18 -53 -18q-71 0 -71 69q0 15 3 36l56 385l24 0z" />
<glyph unicode="&#162;" horiz-adv-x="500" d="M314 430q-17 13 -44 13q-26 0 -47.5 -13.5q-21.5 -13.5 -38 -38.5q-16.5 -25 -25.5 -60q-9 -35 -9 -78q0 -87 45 -141zM156 4q-57 32 -87 85q-30 53 -30 121q0 57 18.5 105.5q18.5 48.5 50 83q31.5 34.5 74.5 54q43 19.5 92 19.5q14 0 28 -1q14 -1 28 -3l47 132h36l-52 -140q87 -32 87 -95q0 -23 -15.5 -38q-15.5 -15 -40.5 -15q-17 0 -26 6.5q-9 6.5 -18 20.5q-2 2 -5.5 12q-3.5 10 -11.5 28l-110 -295q35 -31 82 -31q32 0 64.5 12.5q32.5 12.5 63.5 38.5l14 -14q-92 -106 -206 -106q-25 0 -52 8l-56 -149l-36 0z" />
<glyph unicode="&#163;" horiz-adv-x="500" d="M45 334v44h62q-35 59 -35 111q0 37 15.5 70.5q15.5 33.5 43.5 58.5q28 25 66.5 39.5q38.5 14.5 83.5 14.5q57 0 102.5 -23.5q45.5 -23.5 86.5 -73.5l-62 -121l-42 21q13 30 13 56q0 42 -28 70q-28 28 -72 28q-42 0 -68 -27q-26 -27 -26 -69q0 -32 17.5 -71q17.5 -39 54.5 -84l146 0v-44h-121q26 -35 26 -67q0 -82 -121 -148l2 -5q7 1 13 1q6 0 12 0q50 0 85.5 -10q35.5 -10 58.5 -10q31 0 49.5 13.5q18.5 13.5 28.5 43.5l29 -7q-2 -23 -11.5 -58.5q-9.5 -35.5 -19.5 -83.5q-38 -15 -73 -15q-57 0 -103 32q-27 20 -45.5 36q-18.5 16 -38.5 16q-17 0 -25 -10q-8 -10 -18 -30q-11 -21 -22 -32.5q-11 -11.5 -30 -11.5q-17 0 -26 9.5q-9 9.5 -9 25.5q0 26 28 46q28 20 85 45q48 51 48 88q0 30 -19 61q-19 31 -54 71z" />
<glyph unicode="&#164;" horiz-adv-x="606" d="M446 432q0 29 -11 54.5q-11 25.5 -30.5 45q-19.5 19.5 -45.5 31q-26 11.5 -55 11.5q-29 0 -55 -11.5q-26 -11.5 -45.5 -31q-19.5 -19.5 -30.5 -45q-11 -25.5 -11 -54.5q0 -29 11 -55q11 -26 30.5 -45q19.5 -19 45 -30q25.5 -11 55.5 -11q30 0 55.5 11q25.5 11 45 30q19.5 19 30.5 45q11 26 11 55zt0 0zM181 599q53 40 122 40q70 0 123 -40l99 99l46 -45l-100 -100q39 -53 39 -121q0 -69 -39 -121l100 -100l-46 -45l-99 100q-55 -40 -122 -40q-70 0 -123 40l-99 -100l-45 45l99 100q-39 52 -39 121q0 68 39 121l-99 100l45 45z" />
<glyph unicode="&#165;" horiz-adv-x="626" d="M166 33q29 0 46.5 4q17.5 4 27 13.5q9.5 9.5 12.5 26.5q3 17 3 43v192h-212v28h201l-72 116h-129v28h111q-19 36 -35 62.5q-16 26.5 -34 44q-18 17.5 -39.5 26.5q-21.5 9 -51.5 10l0 32h25q30 0 54 -1.5q24 -1.5 41 -1.5q21 0 45.5 1q24.5 1 53.5 1q16 0 31 0q16 0 31 -2l0 -31q-9 0 -16.5 0.5q-7.5 0.5 -14.5 0.5q-26 0 -37.5 -4q-11.5 -4 -11.5 -16q0 -11 5.5 -17q5.5 -6 7.5 -10l136 -222q66 111 102 171.5q36 60.5 36 75.5q0 13 -7.5 17.5q-7.5 4.5 -25.5 4.5q-9 0 -18.5 -0.5q-9.5 -0.5 -19.5 -0.5l0 32q13 1 24 1.5q11 0.5 20 0.5q20 0 42.5 -1q22.5 -1 47.5 -1q12 0 29 0.5q17 0.5 40 0.5l0 -30q-69 -7 -96 -53l-53 -91h119v-28h-135l-70 -116h205v-28h-218q-5 -11 -6 -21.5q-1 -10.5 -1 -23.5v-139q0 -27 2.5 -45q2.5 -18 12 -29q9.5 -11 27.5 -15.5q18 -4.5 49 -4.5l0 -33q-39 2 -69 3q-30 1 -53 1q-32 0 -72 -2q-40 -2 -90 -3z" />
<glyph unicode="&#166;" horiz-adv-x="500" d="M294 -170h-87v370h87zM294 330h-87v370l87 0z" />
<glyph unicode="&#167;" horiz-adv-x="500" d="M120 477q0 -38 9 -74q9 -36 25.5 -72q16.5 -36 38.5 -73.5q22 -37.5 48 -78.5q45 -72 74.5 -128q29.5 -56 29.5 -107q0 -34 -17 -79q35 32 52.5 72.5q17.5 40.5 17.5 87.5q0 39 -11.5 75.5q-11.5 36.5 -30.5 74q-19 37.5 -44.5 78q-25.5 40.5 -53.5 85.5q-43 69 -69.5 120q-26.5 51 -26.5 99q0 14 1.5 29.5q1.5 15.5 6.5 32.5q-50 -50 -50 -142zt0 0zM456 56q0 -59 -20.5 -109.5q-20.5 -50.5 -55.5 -87q-35 -36.5 -83 -57.5q-48 -21 -103 -21q-66 0 -101.5 21.5q-35.5 21.5 -35.5 55.5q0 23 15.5 38.5q15.5 15.5 38.5 15.5q26 0 46 -21q23 -24 40.5 -43.5q17.5 -19.5 39.5 -19.5q27 0 43.5 19.5q16.5 19.5 16.5 53.5q0 41 -25.5 87.5q-25.5 46.5 -67.5 110.5q-31 47 -57 90.5q-26 43.5 -44.5 85q-18.5 41.5 -29 83q-10.5 41.5 -10.5 84.5q0 57 19.5 106q19.5 49 53.5 85q34 36 79 56q45 20 96 20q61 0 94 -20q33 -20 33 -53q0 -19 -14.5 -33q-14.5 -14 -37.5 -14q-28 0 -50 19q-9 8 -16.5 18q-7.5 10 -15.5 18.5q-8 8.5 -18.5 14.5q-10.5 6 -26.5 6q-23 0 -39.5 -19q-16.5 -19 -16.5 -49q0 -23 10 -48q10 -25 28 -54q18 -29 42 -64q24 -35 52 -77q55 -84 88 -155t33 -143z" />
<glyph unicode="&#168;" horiz-adv-x="501" d="M280 600q0 25 17 42q17 17 42 17q25 0 42 -17q17 -17 17 -42q0 -25 -17 -42q-17 -17 -42 -17q-25 0 -42 17q-17 17 -17 42zt0 0zM102 600q0 25 17 42q17 17 42 17q25 0 42 -17q17 -17 17 -42q0 -25 -17 -42q-17 -17 -42 -17q-25 0 -42 17t-17 42z" />
<glyph unicode="&#169;" horiz-adv-x="822" d="M106 333q0 -24 4 -51q4 -27 14.5 -55q10.5 -28 28 -56q17.5 -28 43.5 -54q28 -28 57 -45.5q29 -17.5 57.5 -27q28.5 -9.5 54 -13q25.5 -3.5 46.5 -3.5q21 0 46.5 3.5q25.5 3.5 54 13q28.5 9.5 57.5 27q29 17.5 57 45.5q26 26 43.5 54q17.5 28 28 56q10.5 28 14.5 55q4 27 4 51q0 24 -4 51q-4 27 -14.5 55q-10.5 28 -28 56q-17.5 28 -43.5 54q-28 28 -57 45q-29 17 -57.5 27q-28.5 10 -54 13.5q-25.5 3.5 -46.5 3.5q-21 0 -46.5 -3.5q-25.5 -3.5 -54 -13.5q-28.5 -10 -57.5 -27q-29 -17 -57 -45q-26 -26 -43.5 -54q-17.5 -28 -28 -56q-10.5 -28 -14.5 -55q-4 -27 -4 -51zt0 0zM411 685q72 0 137 -28q65 -28 112 -76q46 -47 74.5 -111.5q28.5 -64.5 28.5 -136.5q0 -72 -28.5 -137q-28.5 -65 -74.5 -112q-51 -51 -116.5 -77q-65.5 -26 -132.5 -26q-67 0 -132.5 26q-65.5 26 -116.5 77q-46 47 -74.5 112q-28.5 65 -28.5 137q0 72 28.5 136.5q28.5 64.5 74.5 111.5q47 48 112 76q65 28 137 28zt0 0zM572 418l-25 -4q-7 23 -17 37q-10 14 -18 22q-19 19 -41 27q-22 8 -48 8q-35 0 -58.5 -14q-23.5 -14 -37.5 -29q-23 -26 -33.5 -62.5q-10.5 -36.5 -10.5 -68.5q0 -37 11.5 -73.5q11.5 -36.5 34.5 -61.5q20 -20 49 -33.5q29 -13.5 62 -13.5q25 0 47 7.5q22 7.5 40 26.5q11 11 19.5 26.5q8.5 15.5 13.5 31.5l25 -7l-20 -92q-20 -9 -53.5 -18q-33.5 -9 -84.5 -9q-37 0 -66.5 6.5q-29.5 6.5 -52.5 16.5q-23 10 -39.5 22.5q-16.5 12.5 -28.5 24.5q-23 25 -38.5 60.5q-15.5 35.5 -15.5 80.5q0 32 7.5 58.5q7.5 26.5 19.5 46.5q17 29 39 47.5q22 18.5 48 31.5q29 14 59 20.5q30 6.5 65 6.5q51 0 85 -11.5q34 -11.5 51 -19.5z" />
<glyph unicode="&#170;" horiz-adv-x="342" d="M199 529q-53 -17 -79.5 -30q-26.5 -13 -26.5 -28q0 -21 11 -36.5q11 -15.5 29 -15.5q29 0 66 37zM30 578q-4 7 -5 12.5q-1 5.5 -1 13.5q0 21 15.5 34.5q15.5 13.5 45.5 31.5q28 17 47.5 27q19.5 10 38.5 10q10 0 23 -3q13 -3 25.5 -7q12.5 -4 23 -9.5q10.5 -5.5 15.5 -9.5q13 -11 16.5 -26.5q3.5 -15.5 3.5 -36.5l-2 -159q0 -12 3 -18q3 -6 12 -6q14 0 25 16l14 -5q-23 -70 -81 -70q-23 0 -36 11.5q-13 11.5 -13 32.5v17q-33 -31 -61 -46.5q-28 -15.5 -54 -15.5q-32 0 -51 24.5q-19 24.5 -19 60.5q0 20 45 40.5q45 20.5 139 51.5l0 57q0 21 -19 33.5q-19 12.5 -51 12.5q-23 0 -36 -9q-13 -9 -13 -20q0 -2 0.5 -4q0.5 -2 0.5 -4l4 -11z" />
<glyph unicode="&#171;" horiz-adv-x="458" d="M416 386l-101 -160l101 -156l-14 -14l-195 170l195 172zM251 386l-101 -160l101 -156l-15 -14l-194 170l194 172z" />
<glyph unicode="&#172;" horiz-adv-x="833" d="M709 176h-81v164h-504v81l585 0z" />
<glyph unicode="&#173;" horiz-adv-x="380" d="M42 284h296v-100l-296 0z" />
<glyph unicode="&#174;" horiz-adv-x="822" d="M106 333q0 -24 4 -51q4 -27 14.5 -55q10.5 -28 28 -56q17.5 -28 43.5 -54q28 -28 57 -45.5q29 -17.5 57.5 -27q28.5 -9.5 54 -13q25.5 -3.5 46.5 -3.5q21 0 46.5 3.5q25.5 3.5 54 13q28.5 9.5 57.5 27q29 17.5 57 45.5q26 26 43.5 54q17.5 28 28 56q10.5 28 14.5 55q4 27 4 51q0 24 -4 51q-4 27 -14.5 55q-10.5 28 -28 56q-17.5 28 -43.5 54q-28 28 -57 45q-29 17 -57.5 27q-28.5 10 -54 13.5q-25.5 3.5 -46.5 3.5q-21 0 -46.5 -3.5q-25.5 -3.5 -54 -13.5q-28.5 -10 -57.5 -27q-29 -17 -57 -45q-26 -26 -43.5 -54q-17.5 -28 -28 -56q-10.5 -28 -14.5 -55q-4 -27 -4 -51zt0 0zM411 685q72 0 137 -28q65 -28 112 -76q46 -47 74.5 -111.5q28.5 -64.5 28.5 -136.5q0 -72 -28.5 -137q-28.5 -65 -74.5 -112q-51 -51 -116.5 -77q-65.5 -26 -132.5 -26q-67 0 -132.5 26q-65.5 26 -116.5 77q-46 47 -74.5 112q-28.5 65 -28.5 137q0 72 28.5 136.5q28.5 64.5 74.5 111.5q47 48 112 76q65 28 137 28zt0 0zM361 363q5 -1 11 -1.5q6 -0.5 11 -0.5q17 0 31.5 4.5q14.5 4.5 25.5 15.5q13 13 16.5 28q3.5 15 3.5 27q0 12 -3 23.5q-3 11.5 -13 23.5q-11 13 -24 19q-13 6 -27 6q-11 0 -21 -5q-3 -2 -7 -6.5q-4 -4.5 -4 -12.5zM239 536q22 0 44 -1q22 -1 44 -1q20 0 38.5 1q18.5 1 38.5 1q27 0 56.5 -5q29.5 -5 55.5 -26q15 -13 24 -29.5q9 -16.5 9 -38.5q0 -17 -6 -32.5q-6 -15.5 -17 -26.5q-14 -15 -34 -22q-20 -7 -39 -9q17 -8 26 -17q9 -9 17 -20q10 -14 14.5 -22q4.5 -8 12.5 -20q4 -6 8 -12.5q4 -6.5 8 -12.5q3 -5 6 -9.5q3 -4.5 6 -9.5q4 -6 13 -18.5q9 -12.5 17 -20.5q10 -10 22 -13q5 -2 13 -2.5q8 -0.5 14 -0.5l0 -23h-11q-8 0 -11 0q-2 0 -5 -0.5q-3 -0.5 -8 -1q-5 -0.5 -18 -0.5h-21q-6 0 -12 -0.5q-6 -0.5 -12 -0.5h-15q-14 13 -21.5 22.5q-7.5 9.5 -16.5 23.5q-8 11 -12 17q-4 6 -6.5 10.5q-2.5 4.5 -4.5 8q-2 3.5 -5 9.5l-18 30q-3 5 -5.5 9.5q-2.5 4.5 -5.5 9.5q-12 20 -17 27q-5 7 -7 10q-5 5 -12 9q-7 4 -15 4h-10v-135q0 -5 2 -12q2 -7 5 -11q5 -7 15.5 -8q10.5 -1 23.5 -3l0 -21q-10 -1 -18 -1q-7 0 -13 0q-17 0 -28 1q-11 1 -26 1q-24 0 -33 -0.5q-9 -0.5 -14.5 -1q-5.5 -0.5 -12 -1q-6.5 -0.5 -25.5 -0.5h-9v23q11 0 22 2.5q11 2.5 19 11.5q7 8 8.5 18.5q1.5 10.5 1.5 18.5v260q0 9 -1.5 16.5q-1.5 7.5 -10.5 12.5q-8 5 -17 6.5q-9 1.5 -18 1.5h-6l0 24z" />
<glyph unicode="&#175;" horiz-adv-x="500" d="M385 635v-72h-270l0 72z" />
<glyph unicode="&#176;" horiz-adv-x="329" d="M255 575q0 38 -26 64q-26 26 -64 26q-38 0 -64.5 -26q-26.5 -26 -26.5 -64q0 -38 26.5 -64.5q26.5 -26.5 64.5 -26.5q19 0 35.5 7.5q16.5 7.5 28.5 20q12 12.5 19 29q7 16.5 7 34.5zt0 0zM165 719q30 0 56 -11.5q26 -11.5 45.5 -31q19.5 -19.5 31 -46q11.5 -26.5 11.5 -56.5q0 -29 -11.5 -55.5q-11.5 -26.5 -31 -46q-19.5 -19.5 -46 -31q-26.5 -11.5 -56.5 -11.5q-30 0 -56 11q-26 11 -45.5 30.5q-19.5 19.5 -30.5 46q-11 26.5 -11 56.5q0 30 11 56.5q11 26.5 30.5 46q19.5 19.5 46 31t56.5 11.5z" />
<glyph unicode="&#177;" horiz-adv-x="833" d="M709 7h-585v82h585zM458 426h251v-81h-251v-163h-83v163h-251v81h251v163l83 0z" />
<glyph unicode="&#178;" horiz-adv-x="330" d="M7 288q199 159 199 250q0 35 -21.5 55q-21.5 20 -53.5 20q-47 0 -81 -49l-19 11q28 46 63.5 69q35.5 23 76.5 23q52 0 81.5 -27q29.5 -27 29.5 -73q0 -54 -49.5 -110.5q-49.5 -56.5 -146.5 -129.5l46 0q30 0 68.5 0.5q38.5 0.5 85.5 3.5l-38 -64q-18 -1 -35.5 -1.5q-17.5 -0.5 -34.5 -0.5q-29 0 -55.5 0.5q-26.5 0.5 -52.5 0.5q-14 0 -30 0q-16 0 -33 -1z" />
<glyph unicode="&#179;" horiz-adv-x="330" d="M92 478q42 16 63 38.5q21 22.5 21 45.5q0 21 -16 35q-16 14 -39 14q-29 0 -50 -21l-12 8q17 34 42 51.5q25 17.5 51 17.5q38 0 63 -21q25 -21 25 -49q0 -39 -57 -79l0 -5q45 -17 68.5 -44.5q23.5 -27.5 23.5 -62.5q0 -40 -33 -76q-34 -35 -73.5 -54q-39.5 -19 -82.5 -19q-32 0 -49.5 11q-17.5 11 -17.5 27q0 11 9 18q9 7 24 7q10 0 19.5 -4q9.5 -4 18.5 -9q9 -5 17.5 -9q8.5 -4 18.5 -4q29 0 49 22q20 22 20 60q0 38 -22.5 61.5q-22.5 23.5 -58.5 23.5l-22 0z" />
<glyph unicode="&#180;" horiz-adv-x="500" d="M288 657q18 19 34 29.5q16 10.5 33 10.5q18 0 29 -11q5 -4 9.5 -12q4.5 -8 4.5 -21q0 -21 -13.5 -32q-13.5 -11 -32.5 -21l-153 -81l-44 0z" />
<glyph unicode="&#181;" horiz-adv-x="578" d="M86 432h101l-49 -228q-10 -46 -10 -68q0 -32 18 -49.5q18 -17.5 50 -17.5q43 0 68 26q25 26 37 82l54 255h102l-55 -260q-3 -14 -6 -29q-3 -15 -3 -32q0 -21 11 -32.5q11 -11.5 31 -11.5q38 0 63 44q6 10 9.5 19.5q3.5 9.5 7.5 17q4 7.5 8 12q4 4.5 11 4.5q11 0 11 -15q0 -11 -7 -38.5q-7 -27.5 -21 -52.5q-40 -70 -107 -70q-41 0 -63 26q-22 26 -23 77q-42 -103 -130 -103q-48 0 -76.5 28q-28.5 28 -33.5 82q-14 -77 -20.5 -134q-6.5 -57 -13.5 -94.5q-7 -37.5 -18.5 -56q-11.5 -18.5 -36.5 -18.5q-23 0 -35.5 13q-12.5 13 -12.5 36q0 19 8 49.5q8 30.5 20.5 72.5q12.5 42 28 95.5q15.5 53.5 29.5 120.5z" />
<glyph unicode="&#182;" horiz-adv-x="500" d="M416 674v-674h-63v674h-83v-674h-63v383q-84 3 -132 50q-48 47 -48 119q0 37 13 68.5q13 31.5 38 54q25 22.5 60.5 35q35.5 12.5 79.5 12.5h255l0 -48z" />
<glyph unicode="&#183;" horiz-adv-x="250" d="M40 339q0 32 23 55q23 23 55 23q32 0 55 -23q23 -23 23 -55q0 -32 -23 -55q-23 -23 -55 -23q-31 0 -54.5 23.5t-23.5 54.5z" />
<glyph unicode="&#184;" horiz-adv-x="474" d="M252 0v-50q13 3 29 3q26 0 42 -8.5q16 -8.5 24 -18.5q7 -8 11.5 -19.5q4.5 -11.5 4.5 -28.5q0 -20 -6.5 -32.5q-6.5 -12.5 -14.5 -20.5q-11 -11 -30.5 -18.5q-19.5 -7.5 -45.5 -7.5q-20 0 -39 4q-19 4 -39 10q-15 5 -31 11q-16 6 -29 11l18 39q39 -22 65.5 -27q26.5 -5 38.5 -5q8 0 16.5 1.5q8.5 1.5 15.5 7.5q11 9 11 29q0 10 -3 15.5q-3 5.5 -6 8.5q-5 6 -14.5 9q-9.5 3 -18.5 3q-5 0 -14.5 -1q-9.5 -1 -14.5 -2l0 87z" />
<glyph unicode="&#185;" horiz-adv-x="330" d="M84 280q30 3 40.5 12.5q10.5 9.5 10.5 34.5v280q-17 -13 -35 -23q-18 -10 -36 -19l-11 19q26 14 54 34q28 20 57 49l44 0v-341q0 -25 7 -33.5q7 -8.5 36 -8.5h7v-18q-14 -1 -23 -1q-8 0 -12 0q-59 0 -92.5 -1q-33.5 -1 -42.5 -1l-4 0z" />
<glyph unicode="&#186;" horiz-adv-x="413" d="M290 498q0 85 -28.5 132q-28.5 47 -70.5 47q-34 0 -54.5 -25.5q-20.5 -25.5 -20.5 -74.5q0 -80 30.5 -126q30.5 -46 73.5 -46q33 0 51.5 23.5q18.5 23.5 18.5 69.5zt0 0zM206 706q37 0 68.5 -12q31.5 -12 55 -34q23.5 -22 36.5 -51.5q13 -29.5 13 -64.5q0 -48 -27 -91q-23 -36 -63.5 -58q-40.5 -22 -85.5 -22q-38 0 -70 12q-32 12 -55 34q-23 22 -36 52q-13 30 -13 65q0 48 24 87q25 40 65 61.5t88 21.5z" />
<glyph unicode="&#187;" horiz-adv-x="458" d="M207 69l101 159l-101 156l15 14l194 -170l-194 -172zM41 69l102 159l-102 156l15 14l194 -170l-194 -172z" />
<glyph unicode="&#188;" horiz-adv-x="797" d="M644 293q-52 -57 -76 -90q-24 -33 -24 -38q0 -9 16 -9h84zM710 0h-66v107h-145v44q44 58 91.5 113q47.5 55 89.5 112l30 -2v-218h50v-49h-50zM598 671h47l-452 -683h-48zM79 306q29 3 39 12q10 9 10 32v261q-31 -22 -68 -39h-10q24 31 50.5 50q26.5 19 55.5 45l42 0v-318q0 -23 6.5 -31.5q6.5 -8.5 34.5 -8.5h7v-16q-14 -1 -22 -1q-8 0 -12 0q-56 0 -88 -1q-32 -1 -41 -1l-4 0z" />
<glyph unicode="&#189;" horiz-adv-x="797" d="M488 22q189 150 189 233q0 32 -20 51.5q-20 19.5 -51 19.5q-44 0 -77 -46l-19 10q27 43 61.5 64.5q34.5 21.5 72.5 21.5q50 0 78 -25.5q28 -25.5 28 -67.5q0 -51 -47.5 -103q-47.5 -52 -139.5 -121l44 0q29 0 65.5 0.5q36.5 0.5 81.5 2.5l-36 -59q-17 -1 -34 -1.5q-17 -0.5 -33 -0.5q-28 0 -53.5 0.5q-25.5 0.5 -49.5 0.5q-14 0 -29 0q-14 0 -31 -1zM598 671h47l-452 -683h-48zM79 306q29 3 39 12q10 9 10 32v261q-31 -22 -68 -39h-10q24 31 50.5 50q26.5 19 55.5 45l42 0v-318q0 -23 6.5 -31.5q6.5 -8.5 34.5 -8.5h7v-16q-14 -1 -22 -1q-8 0 -12 0q-56 0 -88 -1q-32 -1 -41 -1l-4 0z" />
<glyph unicode="&#190;" horiz-adv-x="797" d="M645 293q-52 -57 -76 -90q-24 -33 -24 -38q0 -9 16 -9h84zM711 0h-66v107h-145v44q44 58 91.5 113q47.5 55 89.5 112l30 -2v-218h50v-49h-50zM599 671h47l-452 -683h-48zM88 491q39 15 59 36q20 21 20 42q0 20 -15 33q-15 13 -37 13q-28 0 -48 -20l-11 7q17 32 40.5 48.5q23.5 16.5 48.5 16.5q36 0 60 -19.5q24 -19.5 24 -45.5q0 -37 -54 -74l0 -5q43 -15 65 -41q22 -26 22 -59q0 -38 -32 -70q-32 -34 -69.5 -51.5q-37.5 -17.5 -78.5 -17.5q-31 0 -47.5 11q-16.5 11 -16.5 25q0 23 32 23q10 0 18.5 -4q8.5 -4 17 -8.5q8.5 -4.5 17 -8q8.5 -3.5 17.5 -3.5q28 0 47 21q19 21 19 56q0 35 -21.5 57q-21.5 22 -55.5 22l-21 0z" />
<glyph unicode="&#191;" horiz-adv-x="444" d="M284 718q31 0 54 -23.5q23 -23.5 23 -54.5q0 -32 -22.5 -55q-22.5 -23 -54.5 -23q-32 0 -55 23q-23 23 -23 55q0 32 23 55q23 23 55 23zt0 0zM299 506l11 -185q-42 -10 -73 -20.5q-31 -10.5 -50.5 -24.5q-19.5 -14 -29 -32q-9.5 -18 -9.5 -42q0 -41 25.5 -64.5q25.5 -23.5 71.5 -23.5q15 0 30 2q15 2 30 2q32 0 49 -15.5q17 -15.5 17 -40.5q0 -28 -18.5 -45.5q-18.5 -17.5 -51.5 -17.5q-33 0 -69 20.5q-36 20.5 -69 62.5q-31 38 -48.5 89q-17.5 51 -17.5 102q0 54 24 84q24 30 78 49q17 6 30 9.5q13 3.5 21 7.5q8 4 12.5 10q4.5 6 5.5 18l3 55z" />
<glyph unicode="&#192;" horiz-adv-x="785" d="M442 301l-102 255q-13 -45 -24 -78.5q-11 -33.5 -25 -73.5l-35 -103zM33 36h6q13 0 31.5 3q18.5 3 35.5 20q9 9 16.5 24.5q7.5 15.5 18.5 44.5l68 185q14 39 26.5 73.5q12.5 34.5 24 68q11.5 33.5 22.5 67.5q11 34 22 71q6 20 11.5 39q5.5 19 11.5 45l66 52h11l33 -87l220 -543q6 -14 13.5 -29q7.5 -15 19.5 -23q8 -5 18.5 -6.5q10.5 -1.5 24.5 -3.5l13 -2v-34h-28l-124 3l-112 -3h-31v34l17 1q21 2 30 4.5q9 2.5 13 4.5q19 11 19 36q0 5 -1.5 12q-1.5 7 -3.5 12l-63 154h-222l-43 -128q-7 -21 -9 -31q-2 -10 -2 -18q0 -10 3 -18q3 -8 12 -15q12 -9 34.5 -12q22.5 -3 34.5 -3l0 -33h-19l-118 3l-100 -3zM362 767l-153 81q-19 10 -32.5 21q-13.5 11 -13.5 32q0 13 4.5 21q4.5 8 9.5 12q11 11 29 11q17 0 33 -10.5q16 -10.5 34 -29.5l133 -138z" />
<glyph unicode="&#193;" horiz-adv-x="785" d="M442 301l-102 255q-13 -45 -24 -78.5q-11 -33.5 -25 -73.5l-35 -103zM33 36h6q13 0 31.5 3q18.5 3 35.5 20q9 9 16.5 24.5q7.5 15.5 18.5 44.5l68 185q14 39 26.5 73.5q12.5 34.5 24 68q11.5 33.5 22.5 67.5q11 34 22 71q6 20 11.5 39q5.5 19 11.5 45l66 52h11l33 -87l220 -543q6 -14 13.5 -29q7.5 -15 19.5 -23q8 -5 18.5 -6.5q10.5 -1.5 24.5 -3.5l13 -2v-34h-28l-124 3l-112 -3h-31v34l17 1q21 2 30 4.5q9 2.5 13 4.5q19 11 19 36q0 5 -1.5 12q-1.5 7 -3.5 12l-63 154h-222l-43 -128q-7 -21 -9 -31q-2 -10 -2 -18q0 -10 3 -18q3 -8 12 -15q12 -9 34.5 -12q22.5 -3 34.5 -3l0 -33h-19l-118 3l-100 -3zM497 905q18 19 34 29.5q16 10.5 33 10.5q18 0 29 -11q5 -4 9.5 -12q4.5 -8 4.5 -21q0 -21 -13.5 -32q-13.5 -11 -32.5 -21l-153 -81l-44 0z" />
<glyph unicode="&#194;" horiz-adv-x="785" d="M442 301l-102 255q-13 -45 -24 -78.5q-11 -33.5 -25 -73.5l-35 -103zM33 36h6q13 0 31.5 3q18.5 3 35.5 20q9 9 16.5 24.5q7.5 15.5 18.5 44.5l68 185q14 39 26.5 73.5q12.5 34.5 24 68q11.5 33.5 22.5 67.5q11 34 22 71q6 20 11.5 39q5.5 19 11.5 45l66 52h11l33 -87l220 -543q6 -14 13.5 -29q7.5 -15 19.5 -23q8 -5 18.5 -6.5q10.5 -1.5 24.5 -3.5l13 -2v-34h-28l-124 3l-112 -3h-31v34l17 1q21 2 30 4.5q9 2.5 13 4.5q19 11 19 36q0 5 -1.5 12q-1.5 7 -3.5 12l-63 154h-222l-43 -128q-7 -21 -9 -31q-2 -10 -2 -18q0 -10 3 -18q3 -8 12 -15q12 -9 34.5 -12q22.5 -3 34.5 -3l0 -33h-19l-118 3l-100 -3zM428 938l110 -171h-41l-105 88l-105 -88h-41l110 171z" />
<glyph unicode="&#195;" horiz-adv-x="785" d="M442 301l-102 255q-13 -45 -24 -78.5q-11 -33.5 -25 -73.5l-35 -103zM33 36h6q13 0 31.5 3q18.5 3 35.5 20q9 9 16.5 24.5q7.5 15.5 18.5 44.5l68 185q14 39 26.5 73.5q12.5 34.5 24 68q11.5 33.5 22.5 67.5q11 34 22 71q6 20 11.5 39q5.5 19 11.5 45l66 52h11l33 -87l220 -543q6 -14 13.5 -29q7.5 -15 19.5 -23q8 -5 18.5 -6.5q10.5 -1.5 24.5 -3.5l13 -2v-34h-28l-124 3l-112 -3h-31v34l17 1q21 2 30 4.5q9 2.5 13 4.5q19 11 19 36q0 5 -1.5 12q-1.5 7 -3.5 12l-63 154h-222l-43 -128q-7 -21 -9 -31q-2 -10 -2 -18q0 -10 3 -18q3 -8 12 -15q12 -9 34.5 -12q22.5 -3 34.5 -3l0 -33h-19l-118 3l-100 -3zM533 933q-2 -20 -8.5 -41.5q-6.5 -21.5 -15.5 -35.5q-13 -20 -32 -32q-19 -12 -39 -12q-6 0 -16.5 1q-10.5 1 -16.5 3l-51 13q-17 5 -28 5q-16 0 -28 -13q-5 -5 -9.5 -14q-4.5 -9 -6.5 -17l-32 0q2 22 11 49q9 27 25 44q11 13 28 20.5q17 7.5 40 7.5q8 0 15.5 -1q7.5 -1 14.5 -3l53 -14q2 -1 8.5 -1.5q6.5 -0.5 10.5 -0.5q12 0 20 5q8 5 14 14q3 5 6 11.5q3 6.5 5 11.5z" />
<glyph unicode="&#196;" horiz-adv-x="785" d="M442 301l-102 255q-13 -45 -24 -78.5q-11 -33.5 -25 -73.5l-35 -103zM33 36h6q13 0 31.5 3q18.5 3 35.5 20q9 9 16.5 24.5q7.5 15.5 18.5 44.5l68 185q14 39 26.5 73.5q12.5 34.5 24 68q11.5 33.5 22.5 67.5q11 34 22 71q6 20 11.5 39q5.5 19 11.5 45l66 52h11l33 -87l220 -543q6 -14 13.5 -29q7.5 -15 19.5 -23q8 -5 18.5 -6.5q10.5 -1.5 24.5 -3.5l13 -2v-34h-28l-124 3l-112 -3h-31v34l17 1q21 2 30 4.5q9 2.5 13 4.5q19 11 19 36q0 5 -1.5 12q-1.5 7 -3.5 12l-63 154h-222l-43 -128q-7 -21 -9 -31q-2 -10 -2 -18q0 -10 3 -18q3 -8 12 -15q12 -9 34.5 -12q22.5 -3 34.5 -3l0 -33h-19l-118 3l-100 -3zM422 853q0 25 17 42q17 17 42 17q25 0 42 -17q17 -17 17 -42q0 -25 -17 -42q-17 -17 -42 -17q-25 0 -42 17q-17 17 -17 42zt0 0zM244 853q0 25 17 42q17 17 42 17q25 0 42 -17q17 -17 17 -42q0 -25 -17 -42q-17 -17 -42 -17q-25 0 -42 17t-17 42z" />
<glyph unicode="&#197;" horiz-adv-x="785" d="M442 301l-102 255q-13 -45 -24 -78.5q-11 -33.5 -25 -73.5l-35 -103zM33 36h6q13 0 31.5 3q18.5 3 35.5 20q9 9 16.5 24.5q7.5 15.5 18.5 44.5l68 185q14 39 26.5 73.5q12.5 34.5 24 68q11.5 33.5 22.5 67.5q11 34 22 71q6 20 11.5 39q5.5 19 11.5 45l66 52h11l33 -87l220 -543q6 -14 13.5 -29q7.5 -15 19.5 -23q8 -5 18.5 -6.5q10.5 -1.5 24.5 -3.5l13 -2v-34h-28l-124 3l-112 -3h-31v34l17 1q21 2 30 4.5q9 2.5 13 4.5q19 11 19 36q0 5 -1.5 12q-1.5 7 -3.5 12l-63 154h-222l-43 -128q-7 -21 -9 -31q-2 -10 -2 -18q0 -10 3 -18q3 -8 12 -15q12 -9 34.5 -12q22.5 -3 34.5 -3l0 -33h-19l-118 3l-100 -3zM268 891q0 25 10 48q10 23 26.5 39.5q16.5 16.5 39 26.5q22.5 10 48.5 10q25 0 48 -10q23 -10 39.5 -26.5q16.5 -16.5 26.5 -39.5q10 -23 10 -48q0 -26 -10 -48.5q-10 -22.5 -26.5 -39q-16.5 -16.5 -39.5 -26.5q-23 -10 -48 -10q-26 0 -48.5 10q-22.5 10 -39 26.5q-16.5 16.5 -26.5 39q-10 22.5 -10 48.5zt0 0zM326 891q0 -27 19.5 -46.5q19.5 -19.5 46.5 -19.5q27 0 46.5 19.5q19.5 19.5 19.5 46.5q0 27 -19.5 46.5q-19.5 19.5 -46.5 19.5q-27 0 -46.5 -19.5t-19.5 -46.5z" />
<glyph unicode="&#198;" horiz-adv-x="934" d="M444 645h-13l-138 -275q29 2 66.5 4q37.5 2 84.5 3zM-6 37q49 3 80.5 36q31.5 33 63.5 96l212 416q8 17 13.5 29q5.5 12 5.5 22q0 11 -9 16q-9 5 -27 7l-50 6v35h576v-34q0 -52 3 -110l-38 -2v3q0 31 -7.5 51q-7.5 20 -24.5 31q-17 11 -45 15q-28 4 -68 4q-38 0 -60.5 -2q-22.5 -2 -34 -9.5q-11.5 -7.5 -15 -23.5q-3.5 -16 -3.5 -43v-196h44q61 0 95 6q34 6 42 38l10 40h33q-1 -45 -1.5 -72.5q-0.5 -27.5 -0.5 -37.5q0 -13 1.5 -32.5q1.5 -19.5 1.5 -46.5q0 -7 -0.5 -13.5q-0.5 -6.5 -0.5 -14.5l-36 4v7q0 49 -23.5 66.5q-23.5 17.5 -80.5 17.5q-39 0 -84 -3l0 -197q0 -32 3.5 -52q3.5 -20 12.5 -31.5q9 -11.5 25.5 -15.5q16.5 -4 43.5 -4h121q54 0 79 40l45 73l39 -12q-12 -34 -22 -68.5q-10 -34.5 -18 -69.5q-57 -6 -92 -6q-46 0 -101.5 1.5q-55.5 1.5 -122.5 1.5q-63 0 -118.5 -3.5q-55.5 -3.5 -104.5 -6.5l0 38l36 4q17 2 27.5 8.5q10.5 6.5 16 18.5q5.5 12 7 29q1.5 17 1.5 40v206q-106 0 -172 -9l-93 -187q-24 -47 -24 -65q0 -39 66 -39h10v-35q-6 -1 -13 -1q-6 0 -13 0q-22 0 -46 1.5q-24 1.5 -50 1.5q-20 0 -38 -1q-18 -1 -34 -1q-6 0 -17 0.5q-11 0.5 -26 1.5z" />
<glyph unicode="&#199;" horiz-adv-x="773" d="M699 586q2 -14 4 -23q2 -9 3 -17q1 -8 2 -15.5q1 -7.5 1 -17.5l-37 -4q-9 27 -24 52q-15 25 -36 45q-28 27 -68.5 44q-40.5 17 -89.5 17q-57 0 -99 -21q-42 -21 -70 -49q-38 -38 -62.5 -100q-24.5 -62 -24.5 -142q0 -54 11 -95.5q11 -41.5 25.5 -71.5q14.5 -30 29.5 -48.5q15 -18.5 23 -26.5q14 -14 33 -28q19 -14 43.5 -25.5q24.5 -11.5 54 -18.5q29.5 -7 65.5 -7q42 0 80.5 12q38.5 12 70.5 45q18 18 33 44q15 26 25 52l38 -9q-5 -20 -6.5 -27.5q-1.5 -7.5 -4.5 -20.5q-3 -11 -4.5 -18q-1.5 -7 -3 -12.5q-1.5 -5.5 -2.5 -10q-1 -4.5 -3 -10.5q-3 -11 -5 -21.5q-2 -10.5 -4 -23.5q-35 -16 -93.5 -31q-58.5 -15 -144.5 -15h-7v-43q11 2 20 2.5q9 0.5 12 0.5q49 0 73 -30q18 -23 18 -53q0 -19 -6.5 -34q-6.5 -15 -16.5 -25q-14 -14 -37.5 -21.5q-23.5 -7.5 -47.5 -7.5q-12 0 -32.5 2.5q-20.5 2.5 -53.5 13.5q-18 5 -35.5 12q-17.5 7 -31.5 12l20 43q39 -23 67.5 -29q28.5 -6 47.5 -6q9 0 18.5 1.5q9.5 1.5 17.5 8.5q8 8 10 16.5q2 8.5 2 15.5q0 6 -2 13q-2 7 -8 14q-5 5 -13.5 9q-8.5 4 -22.5 4q-6 0 -17 -1q-11 -1 -16 -2l0 86q-35 1 -72.5 9q-37.5 8 -74.5 22.5q-37 14.5 -70.5 36q-33.5 21.5 -60.5 49.5q-17 17 -33 40.5q-16 23.5 -29 53.5q-13 30 -21 67q-8 37 -8 81q0 55 12.5 99.5q12.5 44.5 32.5 79.5q23 40 60 75q37 35 89 61q49 24 102 34.5q53 10.5 110 10.5q49 0 108 -10.5q59 -10.5 125 -42.5z" />
<glyph unicode="&#200;" horiz-adv-x="620" d="M118 696q32 -1 57.5 -1.5q25.5 -0.5 48.5 -0.5q27 0 53.5 0.5q26.5 0.5 59.5 1.5q36 1 89 2q53 1 119 1l0 -34q0 -11 0.5 -26q0.5 -15 1 -30.5q0.5 -15.5 1 -29.5q0.5 -14 0.5 -23l-38 -2v10q0 18 -5 36.5q-5 18.5 -17 30.5q-17 17 -49 22q-32 5 -73 5q-42 0 -66.5 -2q-24.5 -2 -34.5 -13q-9 -9 -11 -27.5q-2 -18.5 -2 -35.5v-196h43q33 0 57 1q24 1 42 6q17 5 25 13q8 8 13 24l11 40h32l-2 -106l3 -83l-1 -28l-35 4v7q0 11 -2.5 29.5q-2.5 18.5 -16.5 32.5q-11 11 -31 16.5q-20 5.5 -55 5.5q-17 0 -41.5 -1q-24.5 -1 -41.5 -2l0 -197q0 -32 3.5 -54q3.5 -22 15.5 -33q13 -12 33 -14q20 -2 33 -2h120q17 0 39.5 7q22.5 7 39.5 33l46 73l39 -12q-8 -21 -18 -54q-10 -33 -23 -84q-8 -1 -21 -2q-13 -1 -27 -2q-14 -1 -26 -1.5q-12 -0.5 -17 -0.5l-228 3h-20q-21 0 -39.5 -0.5q-18.5 -0.5 -38.5 -2q-20 -1.5 -42.5 -3q-22.5 -1.5 -51.5 -2.5l-32 -2v38q23 2 44 5.5q21 3.5 32 20.5q7 10 9 26.5q2 16.5 2 47.5v434q0 23 -1.5 45q-1.5 22 -12.5 34q-11 11 -33 15.5q-22 4.5 -45 5.5l0 34zM303 767l-153 81q-19 10 -32.5 21q-13.5 11 -13.5 32q0 13 4.5 21q4.5 8 9.5 12q11 11 29 11q17 0 33 -10.5q16 -10.5 34 -29.5l133 -138z" />
<glyph unicode="&#201;" horiz-adv-x="620" d="M118 696q32 -1 57.5 -1.5q25.5 -0.5 48.5 -0.5q27 0 53.5 0.5q26.5 0.5 59.5 1.5q36 1 89 2q53 1 119 1l0 -34q0 -11 0.5 -26q0.5 -15 1 -30.5q0.5 -15.5 1 -29.5q0.5 -14 0.5 -23l-38 -2v10q0 18 -5 36.5q-5 18.5 -17 30.5q-17 17 -49 22q-32 5 -73 5q-42 0 -66.5 -2q-24.5 -2 -34.5 -13q-9 -9 -11 -27.5q-2 -18.5 -2 -35.5v-196h43q33 0 57 1q24 1 42 6q17 5 25 13q8 8 13 24l11 40h32l-2 -106l3 -83l-1 -28l-35 4v7q0 11 -2.5 29.5q-2.5 18.5 -16.5 32.5q-11 11 -31 16.5q-20 5.5 -55 5.5q-17 0 -41.5 -1q-24.5 -1 -41.5 -2l0 -197q0 -32 3.5 -54q3.5 -22 15.5 -33q13 -12 33 -14q20 -2 33 -2h120q17 0 39.5 7q22.5 7 39.5 33l46 73l39 -12q-8 -21 -18 -54q-10 -33 -23 -84q-8 -1 -21 -2q-13 -1 -27 -2q-14 -1 -26 -1.5q-12 -0.5 -17 -0.5l-228 3h-20q-21 0 -39.5 -0.5q-18.5 -0.5 -38.5 -2q-20 -1.5 -42.5 -3q-22.5 -1.5 -51.5 -2.5l-32 -2v38q23 2 44 5.5q21 3.5 32 20.5q7 10 9 26.5q2 16.5 2 47.5v434q0 23 -1.5 45q-1.5 22 -12.5 34q-11 11 -33 15.5q-22 4.5 -45 5.5l0 34zM412 905q18 19 34 29.5q16 10.5 33 10.5q18 0 29 -11q5 -4 9.5 -12q4.5 -8 4.5 -21q0 -21 -13.5 -32q-13.5 -11 -32.5 -21l-153 -81l-44 0z" />
<glyph unicode="&#202;" horiz-adv-x="620" d="M118 696q32 -1 57.5 -1.5q25.5 -0.5 48.5 -0.5q27 0 53.5 0.5q26.5 0.5 59.5 1.5q36 1 89 2q53 1 119 1l0 -34q0 -11 0.5 -26q0.5 -15 1 -30.5q0.5 -15.5 1 -29.5q0.5 -14 0.5 -23l-38 -2v10q0 18 -5 36.5q-5 18.5 -17 30.5q-17 17 -49 22q-32 5 -73 5q-42 0 -66.5 -2q-24.5 -2 -34.5 -13q-9 -9 -11 -27.5q-2 -18.5 -2 -35.5v-196h43q33 0 57 1q24 1 42 6q17 5 25 13q8 8 13 24l11 40h32l-2 -106l3 -83l-1 -28l-35 4v7q0 11 -2.5 29.5q-2.5 18.5 -16.5 32.5q-11 11 -31 16.5q-20 5.5 -55 5.5q-17 0 -41.5 -1q-24.5 -1 -41.5 -2l0 -197q0 -32 3.5 -54q3.5 -22 15.5 -33q13 -12 33 -14q20 -2 33 -2h120q17 0 39.5 7q22.5 7 39.5 33l46 73l39 -12q-8 -21 -18 -54q-10 -33 -23 -84q-8 -1 -21 -2q-13 -1 -27 -2q-14 -1 -26 -1.5q-12 -0.5 -17 -0.5l-228 3h-20q-21 0 -39.5 -0.5q-18.5 -0.5 -38.5 -2q-20 -1.5 -42.5 -3q-22.5 -1.5 -51.5 -2.5l-32 -2v38q23 2 44 5.5q21 3.5 32 20.5q7 10 9 26.5q2 16.5 2 47.5v434q0 23 -1.5 45q-1.5 22 -12.5 34q-11 11 -33 15.5q-22 4.5 -45 5.5l0 34zM346 938l110 -171h-41l-105 88l-105 -88h-41l110 171z" />
<glyph unicode="&#203;" horiz-adv-x="620" d="M118 696q32 -1 57.5 -1.5q25.5 -0.5 48.5 -0.5q27 0 53.5 0.5q26.5 0.5 59.5 1.5q36 1 89 2q53 1 119 1l0 -34q0 -11 0.5 -26q0.5 -15 1 -30.5q0.5 -15.5 1 -29.5q0.5 -14 0.5 -23l-38 -2v10q0 18 -5 36.5q-5 18.5 -17 30.5q-17 17 -49 22q-32 5 -73 5q-42 0 -66.5 -2q-24.5 -2 -34.5 -13q-9 -9 -11 -27.5q-2 -18.5 -2 -35.5v-196h43q33 0 57 1q24 1 42 6q17 5 25 13q8 8 13 24l11 40h32l-2 -106l3 -83l-1 -28l-35 4v7q0 11 -2.5 29.5q-2.5 18.5 -16.5 32.5q-11 11 -31 16.5q-20 5.5 -55 5.5q-17 0 -41.5 -1q-24.5 -1 -41.5 -2l0 -197q0 -32 3.5 -54q3.5 -22 15.5 -33q13 -12 33 -14q20 -2 33 -2h120q17 0 39.5 7q22.5 7 39.5 33l46 73l39 -12q-8 -21 -18 -54q-10 -33 -23 -84q-8 -1 -21 -2q-13 -1 -27 -2q-14 -1 -26 -1.5q-12 -0.5 -17 -0.5l-228 3h-20q-21 0 -39.5 -0.5q-18.5 -0.5 -38.5 -2q-20 -1.5 -42.5 -3q-22.5 -1.5 -51.5 -2.5l-32 -2v38q23 2 44 5.5q21 3.5 32 20.5q7 10 9 26.5q2 16.5 2 47.5v434q0 23 -1.5 45q-1.5 22 -12.5 34q-11 11 -33 15.5q-22 4.5 -45 5.5l0 34zM340 853q0 25 17 42q17 17 42 17q25 0 42 -17q17 -17 17 -42q0 -25 -17 -42q-17 -17 -42 -17q-25 0 -42 17q-17 17 -17 42zt0 0zM162 853q0 25 17 42q17 17 42 17q25 0 42 -17q17 -17 17 -42q0 -25 -17 -42q-17 -17 -42 -17q-25 0 -42 17t-17 42z" />
<glyph unicode="&#204;" horiz-adv-x="396" d="M196 695l158 3v-35q-24 0 -43 -3q-19 -3 -30 -13q-12 -11 -14.5 -27.5q-2.5 -16.5 -2.5 -30.5v-468v-7q0 -14 2 -30.5q2 -16.5 12 -27.5q11 -12 32 -15q21 -3 44 -4l0 -35h-33q-23 0 -34 0.5q-11 0.5 -17 0.5q-6 0 -12 0.5q-6 0.5 -19 0.5h-19l-135 -3l-46 1v36h8q4 0 12.5 0.5q8.5 0.5 17.5 2q9 1.5 18.5 5.5q9.5 4 16.5 10q14 12 17 28q3 16 3 28v469q0 15 -2 31q-2 16 -11 26q-3 4 -18.5 13q-15.5 9 -60.5 14l0 34zM174 767l-153 81q-19 10 -32.5 21q-13.5 11 -13.5 32q0 13 4.5 21q4.5 8 9.5 12q11 11 29 11q17 0 33 -10.5q16 -10.5 34 -29.5l133 -138z" />
<glyph unicode="&#205;" horiz-adv-x="396" d="M196 695l158 3v-35q-24 0 -43 -3q-19 -3 -30 -13q-12 -11 -14.5 -27.5q-2.5 -16.5 -2.5 -30.5v-468v-7q0 -14 2 -30.5q2 -16.5 12 -27.5q11 -12 32 -15q21 -3 44 -4l0 -35h-33q-23 0 -34 0.5q-11 0.5 -17 0.5q-6 0 -12 0.5q-6 0.5 -19 0.5h-19l-135 -3l-46 1v36h8q4 0 12.5 0.5q8.5 0.5 17.5 2q9 1.5 18.5 5.5q9.5 4 16.5 10q14 12 17 28q3 16 3 28v469q0 15 -2 31q-2 16 -11 26q-3 4 -18.5 13q-15.5 9 -60.5 14l0 34zM306 905q18 19 34 29.5q16 10.5 33 10.5q18 0 29 -11q5 -4 9.5 -12q4.5 -8 4.5 -21q0 -21 -13.5 -32q-13.5 -11 -32.5 -21l-153 -81l-44 0z" />
<glyph unicode="&#206;" horiz-adv-x="396" d="M196 695l158 3v-35q-24 0 -43 -3q-19 -3 -30 -13q-12 -11 -14.5 -27.5q-2.5 -16.5 -2.5 -30.5v-468v-7q0 -14 2 -30.5q2 -16.5 12 -27.5q11 -12 32 -15q21 -3 44 -4l0 -35h-33q-23 0 -34 0.5q-11 0.5 -17 0.5q-6 0 -12 0.5q-6 0.5 -19 0.5h-19l-135 -3l-46 1v36h8q4 0 12.5 0.5q8.5 0.5 17.5 2q9 1.5 18.5 5.5q9.5 4 16.5 10q14 12 17 28q3 16 3 28v469q0 15 -2 31q-2 16 -11 26q-3 4 -18.5 13q-15.5 9 -60.5 14l0 34zM234 938l110 -171h-41l-105 88l-105 -88h-41l110 171z" />
<glyph unicode="&#207;" horiz-adv-x="396" d="M196 695l158 3v-35q-24 0 -43 -3q-19 -3 -30 -13q-12 -11 -14.5 -27.5q-2.5 -16.5 -2.5 -30.5v-468v-7q0 -14 2 -30.5q2 -16.5 12 -27.5q11 -12 32 -15q21 -3 44 -4l0 -35h-33q-23 0 -34 0.5q-11 0.5 -17 0.5q-6 0 -12 0.5q-6 0.5 -19 0.5h-19l-135 -3l-46 1v36h8q4 0 12.5 0.5q8.5 0.5 17.5 2q9 1.5 18.5 5.5q9.5 4 16.5 10q14 12 17 28q3 16 3 28v469q0 15 -2 31q-2 16 -11 26q-3 4 -18.5 13q-15.5 9 -60.5 14l0 34zM228 853q0 25 17 42q17 17 42 17q25 0 42 -17q17 -17 17 -42q0 -25 -17 -42q-17 -17 -42 -17q-25 0 -42 17q-17 17 -17 42zt0 0zM50 853q0 25 17 42q17 17 42 17q25 0 42 -17q17 -17 17 -42q0 -25 -17 -42q-17 -17 -42 -17q-25 0 -42 17t-17 42z" />
<glyph unicode="&#208;" horiz-adv-x="833" d="M262 160q0 -60 33 -87q33 -27 107 -27q86 0 154 60q46 41 71.5 104.5q25.5 63.5 25.5 141.5q0 155 -76 238q-76 83 -211 83q-57 0 -80.5 -17.5q-23.5 -17.5 -23.5 -65.5v-191h181v-46h-181zM42 34q30 2 48 9q18 7 27.5 21q9.5 14 13 35.5q3.5 21.5 3.5 53.5v200h-125v46h125v164q0 29 -4 48q-4 19 -13.5 30q-9.5 11 -26.5 15.5q-17 4.5 -44 4.5l0 28q175 30 300 30q78 0 137.5 -11q59.5 -11 99.5 -31q104 -51 157.5 -133.5q53.5 -82.5 53.5 -191.5q0 -75 -28 -138.5q-28 -63.5 -82 -108.5q-121 -103 -303 -103q-40 0 -82 2.5q-42 2.5 -88 2.5q-32 0 -67.5 -2q-35.5 -2 -74.5 -2l-27 0z" />
<glyph unicode="&#209;" horiz-adv-x="846" d="M22 36h7q14 0 28 2q14 2 23 6q15 7 23 17.5q8 10.5 13 24.5q6 19 7.5 45q1.5 26 1.5 61v352q0 10 -0.5 22.5q-0.5 12.5 -3 24.5q-2.5 12 -7 23.5q-4.5 11.5 -12.5 19.5q-12 12 -33 18q-21 6 -37 8l-28 2v35l29 1l145 -5l64 2l102 -122q55 -66 96.5 -116q41.5 -50 79 -94.5q37.5 -44.5 74.5 -87q37 -42.5 82 -91.5l0 396q0 51 -16 67q-10 10 -23.5 12.5q-13.5 2.5 -23.5 3.5l-30 3v33h14l115 -4l95 3h16v-36l-24 -1q-11 -1 -25.5 -5.5q-14.5 -4.5 -22.5 -12.5q-13 -12 -16 -33.5q-3 -21.5 -3 -39.5v-427q0 -46 0.5 -82.5q0.5 -36.5 2.5 -79.5l-54 0q-40 50 -81 99.5q-41 49.5 -89.5 107q-48.5 57.5 -109 127.5q-60.5 70 -140.5 161l-80 91v-401q0 -37 1 -55q1 -18 3 -29q2 -10 6 -17.5q4 -7.5 12 -12.5q9 -6 23 -9.5q14 -3.5 26 -4.5l23 -2v-36h-15l-123 4l-87 -4l-28 1zM564 933q-2 -20 -8.5 -41.5q-6.5 -21.5 -15.5 -35.5q-13 -20 -32 -32q-19 -12 -39 -12q-6 0 -16.5 1q-10.5 1 -16.5 3l-51 13q-17 5 -28 5q-16 0 -28 -13q-5 -5 -9.5 -14q-4.5 -9 -6.5 -17l-32 0q2 22 11 49q9 27 25 44q11 13 28 20.5q17 7.5 40 7.5q8 0 15.5 -1q7.5 -1 14.5 -3l53 -14q2 -1 8.5 -1.5q6.5 -0.5 10.5 -0.5q12 0 20 5q8 5 14 14q3 5 6 11.5q3 6.5 5 11.5z" />
<glyph unicode="&#210;" horiz-adv-x="881" d="M695 307q0 39 -6 73q-6 34 -13.5 60.5q-7.5 26.5 -15 44q-7.5 17.5 -9.5 22.5q-4 8 -12 23q-8 15 -20 32.5q-12 17.5 -28.5 36.5q-16.5 19 -37.5 34q-31 23 -63 32.5q-32 9.5 -65 9.5q-31 0 -56.5 -6q-25.5 -6 -46 -15.5q-20.5 -9.5 -36.5 -21q-16 -11.5 -27 -23.5q-28 -29 -51 -80q-23 -51 -23 -133q0 -32 4 -64q4 -32 14 -67q15 -54 38 -93.5q23 -39.5 50 -67.5q22 -23 44.5 -37q22.5 -14 44.5 -22q22 -8 41.5 -11q19.5 -3 35.5 -3q30 0 54.5 6.5q24.5 6.5 44 16.5q19.5 10 34 21.5q14.5 11.5 24.5 20.5q9 9 23 26.5q14 17.5 27 43.5q13 26 22 61q9 35 9 80zt0 0zM418 -19q-46 0 -85 10q-39 10 -72 25q-43 20 -83.5 53.5q-40.5 33.5 -70.5 78.5q-26 39 -42.5 88.5q-16.5 49.5 -16.5 109.5q0 94 46 176q24 42 62 82.5q38 40.5 86 66.5q38 22 87 35q49 13 112 13q65 0 113.5 -13q48.5 -13 83.5 -31q45 -23 79 -55.5q34 -32.5 59 -70.5q26 -41 41 -85q15 -44 15 -96q0 -45 -10.5 -87.5q-10.5 -42.5 -35.5 -85.5q-29 -51 -71 -91q-42 -40 -87 -66q-57 -34 -111 -45.5q-54 -11.5 -99 -11.5zt0 0zM409 767l-153 81q-19 10 -32.5 21q-13.5 11 -13.5 32q0 13 4.5 21q4.5 8 9.5 12q11 11 29 11q17 0 33 -10.5q16 -10.5 34 -29.5l133 -138z" />
<glyph unicode="&#211;" horiz-adv-x="881" d="M695 307q0 39 -6 73q-6 34 -13.5 60.5q-7.5 26.5 -15 44q-7.5 17.5 -9.5 22.5q-4 8 -12 23q-8 15 -20 32.5q-12 17.5 -28.5 36.5q-16.5 19 -37.5 34q-31 23 -63 32.5q-32 9.5 -65 9.5q-31 0 -56.5 -6q-25.5 -6 -46 -15.5q-20.5 -9.5 -36.5 -21q-16 -11.5 -27 -23.5q-28 -29 -51 -80q-23 -51 -23 -133q0 -32 4 -64q4 -32 14 -67q15 -54 38 -93.5q23 -39.5 50 -67.5q22 -23 44.5 -37q22.5 -14 44.5 -22q22 -8 41.5 -11q19.5 -3 35.5 -3q30 0 54.5 6.5q24.5 6.5 44 16.5q19.5 10 34 21.5q14.5 11.5 24.5 20.5q9 9 23 26.5q14 17.5 27 43.5q13 26 22 61q9 35 9 80zt0 0zM418 -19q-46 0 -85 10q-39 10 -72 25q-43 20 -83.5 53.5q-40.5 33.5 -70.5 78.5q-26 39 -42.5 88.5q-16.5 49.5 -16.5 109.5q0 94 46 176q24 42 62 82.5q38 40.5 86 66.5q38 22 87 35q49 13 112 13q65 0 113.5 -13q48.5 -13 83.5 -31q45 -23 79 -55.5q34 -32.5 59 -70.5q26 -41 41 -85q15 -44 15 -96q0 -45 -10.5 -87.5q-10.5 -42.5 -35.5 -85.5q-29 -51 -71 -91q-42 -40 -87 -66q-57 -34 -111 -45.5q-54 -11.5 -99 -11.5zt0 0zM538 905q18 19 34 29.5q16 10.5 33 10.5q18 0 29 -11q5 -4 9.5 -12q4.5 -8 4.5 -21q0 -21 -13.5 -32q-13.5 -11 -32.5 -21l-153 -81l-44 0z" />
<glyph unicode="&#212;" horiz-adv-x="881" d="M695 307q0 39 -6 73q-6 34 -13.5 60.5q-7.5 26.5 -15 44q-7.5 17.5 -9.5 22.5q-4 8 -12 23q-8 15 -20 32.5q-12 17.5 -28.5 36.5q-16.5 19 -37.5 34q-31 23 -63 32.5q-32 9.5 -65 9.5q-31 0 -56.5 -6q-25.5 -6 -46 -15.5q-20.5 -9.5 -36.5 -21q-16 -11.5 -27 -23.5q-28 -29 -51 -80q-23 -51 -23 -133q0 -32 4 -64q4 -32 14 -67q15 -54 38 -93.5q23 -39.5 50 -67.5q22 -23 44.5 -37q22.5 -14 44.5 -22q22 -8 41.5 -11q19.5 -3 35.5 -3q30 0 54.5 6.5q24.5 6.5 44 16.5q19.5 10 34 21.5q14.5 11.5 24.5 20.5q9 9 23 26.5q14 17.5 27 43.5q13 26 22 61q9 35 9 80zt0 0zM418 -19q-46 0 -85 10q-39 10 -72 25q-43 20 -83.5 53.5q-40.5 33.5 -70.5 78.5q-26 39 -42.5 88.5q-16.5 49.5 -16.5 109.5q0 94 46 176q24 42 62 82.5q38 40.5 86 66.5q38 22 87 35q49 13 112 13q65 0 113.5 -13q48.5 -13 83.5 -31q45 -23 79 -55.5q34 -32.5 59 -70.5q26 -41 41 -85q15 -44 15 -96q0 -45 -10.5 -87.5q-10.5 -42.5 -35.5 -85.5q-29 -51 -71 -91q-42 -40 -87 -66q-57 -34 -111 -45.5q-54 -11.5 -99 -11.5zt0 0zM476 938l110 -171h-41l-105 88l-105 -88h-41l110 171z" />
<glyph unicode="&#213;" horiz-adv-x="881" d="M695 307q0 39 -6 73q-6 34 -13.5 60.5q-7.5 26.5 -15 44q-7.5 17.5 -9.5 22.5q-4 8 -12 23q-8 15 -20 32.5q-12 17.5 -28.5 36.5q-16.5 19 -37.5 34q-31 23 -63 32.5q-32 9.5 -65 9.5q-31 0 -56.5 -6q-25.5 -6 -46 -15.5q-20.5 -9.5 -36.5 -21q-16 -11.5 -27 -23.5q-28 -29 -51 -80q-23 -51 -23 -133q0 -32 4 -64q4 -32 14 -67q15 -54 38 -93.5q23 -39.5 50 -67.5q22 -23 44.5 -37q22.5 -14 44.5 -22q22 -8 41.5 -11q19.5 -3 35.5 -3q30 0 54.5 6.5q24.5 6.5 44 16.5q19.5 10 34 21.5q14.5 11.5 24.5 20.5q9 9 23 26.5q14 17.5 27 43.5q13 26 22 61q9 35 9 80zt0 0zM418 -19q-46 0 -85 10q-39 10 -72 25q-43 20 -83.5 53.5q-40.5 33.5 -70.5 78.5q-26 39 -42.5 88.5q-16.5 49.5 -16.5 109.5q0 94 46 176q24 42 62 82.5q38 40.5 86 66.5q38 22 87 35q49 13 112 13q65 0 113.5 -13q48.5 -13 83.5 -31q45 -23 79 -55.5q34 -32.5 59 -70.5q26 -41 41 -85q15 -44 15 -96q0 -45 -10.5 -87.5q-10.5 -42.5 -35.5 -85.5q-29 -51 -71 -91q-42 -40 -87 -66q-57 -34 -111 -45.5q-54 -11.5 -99 -11.5zt0 0zM581 933q-2 -20 -8.5 -41.5q-6.5 -21.5 -15.5 -35.5q-13 -20 -32 -32q-19 -12 -39 -12q-6 0 -16.5 1q-10.5 1 -16.5 3l-51 13q-17 5 -28 5q-16 0 -28 -13q-5 -5 -9.5 -14q-4.5 -9 -6.5 -17l-32 0q2 22 11 49q9 27 25 44q11 13 28 20.5q17 7.5 40 7.5q8 0 15.5 -1q7.5 -1 14.5 -3l53 -14q2 -1 8.5 -1.5q6.5 -0.5 10.5 -0.5q12 0 20 5q8 5 14 14q3 5 6 11.5q3 6.5 5 11.5z" />
<glyph unicode="&#214;" horiz-adv-x="881" d="M695 307q0 39 -6 73q-6 34 -13.5 60.5q-7.5 26.5 -15 44q-7.5 17.5 -9.5 22.5q-4 8 -12 23q-8 15 -20 32.5q-12 17.5 -28.5 36.5q-16.5 19 -37.5 34q-31 23 -63 32.5q-32 9.5 -65 9.5q-31 0 -56.5 -6q-25.5 -6 -46 -15.5q-20.5 -9.5 -36.5 -21q-16 -11.5 -27 -23.5q-28 -29 -51 -80q-23 -51 -23 -133q0 -32 4 -64q4 -32 14 -67q15 -54 38 -93.5q23 -39.5 50 -67.5q22 -23 44.5 -37q22.5 -14 44.5 -22q22 -8 41.5 -11q19.5 -3 35.5 -3q30 0 54.5 6.5q24.5 6.5 44 16.5q19.5 10 34 21.5q14.5 11.5 24.5 20.5q9 9 23 26.5q14 17.5 27 43.5q13 26 22 61q9 35 9 80zt0 0zM418 -19q-46 0 -85 10q-39 10 -72 25q-43 20 -83.5 53.5q-40.5 33.5 -70.5 78.5q-26 39 -42.5 88.5q-16.5 49.5 -16.5 109.5q0 94 46 176q24 42 62 82.5q38 40.5 86 66.5q38 22 87 35q49 13 112 13q65 0 113.5 -13q48.5 -13 83.5 -31q45 -23 79 -55.5q34 -32.5 59 -70.5q26 -41 41 -85q15 -44 15 -96q0 -45 -10.5 -87.5q-10.5 -42.5 -35.5 -85.5q-29 -51 -71 -91q-42 -40 -87 -66q-57 -34 -111 -45.5q-54 -11.5 -99 -11.5zt0 0zM470 853q0 25 17 42q17 17 42 17q25 0 42 -17q17 -17 17 -42q0 -25 -17 -42q-17 -17 -42 -17q-25 0 -42 17q-17 17 -17 42zt0 0zM292 853q0 25 17 42q17 17 42 17q25 0 42 -17q17 -17 17 -42q0 -25 -17 -42q-17 -17 -42 -17q-25 0 -42 17t-17 42z" />
<glyph unicode="&#215;" horiz-adv-x="833" d="M646 580l57 -57l-224 -225l224 -224l-57 -58l-225 225l-224 -225l-57 58l224 224l-224 225l57 57l224 -224z" />
<glyph unicode="&#216;" horiz-adv-x="881" d="M610 581q-36 48 -83.5 72q-47.5 24 -102.5 24q-54 0 -99 -19.5q-45 -19.5 -77 -55.5q-32 -36 -49.5 -88.5q-17.5 -52.5 -17.5 -118.5q0 -53 10 -101q10 -48 32 -93zM245 160q37 -65 92.5 -99q55.5 -34 120.5 -34q51 0 95.5 21q44.5 21 77 58q32.5 37 51 88.5q18.5 51.5 18.5 111.5q0 123 -64 238zM30 17l102 99q-83 99 -83 223q0 157 106 264q58 60 128.5 88q70.5 28 158.5 28q68 0 126.5 -17.5q58.5 -17.5 112.5 -52.5l84 83l35 -33l-82 -80q57 -54 85.5 -118q28.5 -64 28.5 -133q0 -145 -109 -255q-63 -64 -140 -98q-77 -34 -162 -34q-139 0 -256 99l-103 -99z" />
<glyph unicode="&#217;" horiz-adv-x="835" d="M58 698l127 -4l58 2q23 1 42 2q19 1 39 1h26v-33q-20 -1 -41 -3.5q-21 -2.5 -33 -14.5q-12 -12 -14.5 -29.5q-2.5 -17.5 -2.5 -28.5v-301q0 -52 1.5 -81.5q1.5 -29.5 6.5 -51.5q12 -45 48 -73q23 -17 55.5 -27q32.5 -10 74.5 -10q58 0 96 16.5q38 16.5 60 37.5q21 20 32.5 44q11.5 24 17 48q5.5 24 7 45.5q1.5 21.5 1.5 37.5v275q0 42 -3.5 61.5q-3.5 19.5 -11.5 29.5q-12 15 -34 19.5q-22 4.5 -42 5.5l0 33h14l111 -4l91 2h20v-34q-15 -1 -34.5 -4q-19.5 -3 -31.5 -9q-9 -5 -13 -11q-4 -6 -6 -19q-3 -14 -3.5 -26.5q-0.5 -12.5 -0.5 -25.5v-22v-214q0 -35 -1 -62q-1 -27 -3 -47.5q-2 -20.5 -4.5 -36.5q-2.5 -16 -6.5 -29q-13 -45 -38 -75.5q-25 -30.5 -56 -50.5q-46 -30 -97 -40q-51 -10 -102 -10q-18 0 -46 1.5q-28 1.5 -58.5 8.5q-30.5 7 -61 20q-30.5 13 -54.5 36q-23 23 -43.5 64q-20.5 41 -20.5 104v7l2 78q1 51 2 88.5q1 37.5 1.5 66.5q0.5 29 0.5 53q0 24 0 48q0 32 -2 53q-2 21 -13 33q-14 15 -39 19q-25 4 -42 4l0 33zM408 767l-153 81q-19 10 -32.5 21q-13.5 11 -13.5 32q0 13 4.5 21q4.5 8 9.5 12q11 11 29 11q17 0 33 -10.5q16 -10.5 34 -29.5l133 -138z" />
<glyph unicode="&#218;" horiz-adv-x="835" d="M58 698l127 -4l58 2q23 1 42 2q19 1 39 1h26v-33q-20 -1 -41 -3.5q-21 -2.5 -33 -14.5q-12 -12 -14.5 -29.5q-2.5 -17.5 -2.5 -28.5v-301q0 -52 1.5 -81.5q1.5 -29.5 6.5 -51.5q12 -45 48 -73q23 -17 55.5 -27q32.5 -10 74.5 -10q58 0 96 16.5q38 16.5 60 37.5q21 20 32.5 44q11.5 24 17 48q5.5 24 7 45.5q1.5 21.5 1.5 37.5v275q0 42 -3.5 61.5q-3.5 19.5 -11.5 29.5q-12 15 -34 19.5q-22 4.5 -42 5.5l0 33h14l111 -4l91 2h20v-34q-15 -1 -34.5 -4q-19.5 -3 -31.5 -9q-9 -5 -13 -11q-4 -6 -6 -19q-3 -14 -3.5 -26.5q-0.5 -12.5 -0.5 -25.5v-22v-214q0 -35 -1 -62q-1 -27 -3 -47.5q-2 -20.5 -4.5 -36.5q-2.5 -16 -6.5 -29q-13 -45 -38 -75.5q-25 -30.5 -56 -50.5q-46 -30 -97 -40q-51 -10 -102 -10q-18 0 -46 1.5q-28 1.5 -58.5 8.5q-30.5 7 -61 20q-30.5 13 -54.5 36q-23 23 -43.5 64q-20.5 41 -20.5 104v7l2 78q1 51 2 88.5q1 37.5 1.5 66.5q0.5 29 0.5 53q0 24 0 48q0 32 -2 53q-2 21 -13 33q-14 15 -39 19q-25 4 -42 4l0 33zM552 905q18 19 34 29.5q16 10.5 33 10.5q18 0 29 -11q5 -4 9.5 -12q4.5 -8 4.5 -21q0 -21 -13.5 -32q-13.5 -11 -32.5 -21l-153 -81l-44 0z" />
<glyph unicode="&#219;" horiz-adv-x="835" d="M58 698l127 -4l58 2q23 1 42 2q19 1 39 1h26v-33q-20 -1 -41 -3.5q-21 -2.5 -33 -14.5q-12 -12 -14.5 -29.5q-2.5 -17.5 -2.5 -28.5v-301q0 -52 1.5 -81.5q1.5 -29.5 6.5 -51.5q12 -45 48 -73q23 -17 55.5 -27q32.5 -10 74.5 -10q58 0 96 16.5q38 16.5 60 37.5q21 20 32.5 44q11.5 24 17 48q5.5 24 7 45.5q1.5 21.5 1.5 37.5v275q0 42 -3.5 61.5q-3.5 19.5 -11.5 29.5q-12 15 -34 19.5q-22 4.5 -42 5.5l0 33h14l111 -4l91 2h20v-34q-15 -1 -34.5 -4q-19.5 -3 -31.5 -9q-9 -5 -13 -11q-4 -6 -6 -19q-3 -14 -3.5 -26.5q-0.5 -12.5 -0.5 -25.5v-22v-214q0 -35 -1 -62q-1 -27 -3 -47.5q-2 -20.5 -4.5 -36.5q-2.5 -16 -6.5 -29q-13 -45 -38 -75.5q-25 -30.5 -56 -50.5q-46 -30 -97 -40q-51 -10 -102 -10q-18 0 -46 1.5q-28 1.5 -58.5 8.5q-30.5 7 -61 20q-30.5 13 -54.5 36q-23 23 -43.5 64q-20.5 41 -20.5 104v7l2 78q1 51 2 88.5q1 37.5 1.5 66.5q0.5 29 0.5 53q0 24 0 48q0 32 -2 53q-2 21 -13 33q-14 15 -39 19q-25 4 -42 4l0 33zM453 938l110 -171h-41l-105 88l-105 -88h-41l110 171z" />
<glyph unicode="&#220;" horiz-adv-x="835" d="M58 698l127 -4l58 2q23 1 42 2q19 1 39 1h26v-33q-20 -1 -41 -3.5q-21 -2.5 -33 -14.5q-12 -12 -14.5 -29.5q-2.5 -17.5 -2.5 -28.5v-301q0 -52 1.5 -81.5q1.5 -29.5 6.5 -51.5q12 -45 48 -73q23 -17 55.5 -27q32.5 -10 74.5 -10q58 0 96 16.5q38 16.5 60 37.5q21 20 32.5 44q11.5 24 17 48q5.5 24 7 45.5q1.5 21.5 1.5 37.5v275q0 42 -3.5 61.5q-3.5 19.5 -11.5 29.5q-12 15 -34 19.5q-22 4.5 -42 5.5l0 33h14l111 -4l91 2h20v-34q-15 -1 -34.5 -4q-19.5 -3 -31.5 -9q-9 -5 -13 -11q-4 -6 -6 -19q-3 -14 -3.5 -26.5q-0.5 -12.5 -0.5 -25.5v-22v-214q0 -35 -1 -62q-1 -27 -3 -47.5q-2 -20.5 -4.5 -36.5q-2.5 -16 -6.5 -29q-13 -45 -38 -75.5q-25 -30.5 -56 -50.5q-46 -30 -97 -40q-51 -10 -102 -10q-18 0 -46 1.5q-28 1.5 -58.5 8.5q-30.5 7 -61 20q-30.5 13 -54.5 36q-23 23 -43.5 64q-20.5 41 -20.5 104v7l2 78q1 51 2 88.5q1 37.5 1.5 66.5q0.5 29 0.5 53q0 24 0 48q0 32 -2 53q-2 21 -13 33q-14 15 -39 19q-25 4 -42 4l0 33zM463 853q0 25 17 42q17 17 42 17q25 0 42 -17q17 -17 17 -42q0 -25 -17 -42q-17 -17 -42 -17q-25 0 -42 17q-17 17 -17 42zt0 0zM285 853q0 25 17 42q17 17 42 17q25 0 42 -17q17 -17 17 -42q0 -25 -17 -42q-17 -17 -42 -17q-25 0 -42 17t-17 42z" />
<glyph unicode="&#221;" horiz-adv-x="688" d="M185 34l25 1q34 1 49 18q10 11 12.5 30q2.5 19 2.5 43v169q0 7 -0.5 19q-0.5 12 -2.5 18q-2 5 -4.5 10q-2.5 5 -6.5 11q-17 27 -33.5 50.5q-16.5 23.5 -32.5 47.5q-16 24 -33 48.5q-17 24.5 -36 53.5q-18 27 -29.5 44.5q-11.5 17.5 -23.5 30.5q-11 11 -27 22q-16 11 -36 13l-20 2v34h26l119 -3l109 2q5 0 20 -0.5q15 -0.5 35 -2.5l0 -33q-5 1 -12 1q-7 0 -14 0q-22 0 -37 -3q-7 -2 -12 -5q-5 -3 -5 -12q0 -6 3.5 -14.5q3.5 -8.5 14.5 -25.5l144 -213q40 59 66 97.5q26 38.5 41 62.5q15 24 21.5 36q6.5 12 9.5 17q8 17 11 26q3 9 3 14q0 10 -8 15q-4 2 -11.5 3.5q-7.5 1.5 -24.5 1.5h-29v34l41 2l91 -3l78 2v-32q-11 -1 -23.5 -4q-12.5 -3 -22.5 -8q-17 -9 -27 -22.5q-10 -13.5 -20 -28.5q-9 -14 -28 -43q-19 -29 -40 -61.5q-21 -32.5 -40 -61q-19 -28.5 -28 -41.5q-7 -11 -13 -20q-6 -9 -12 -23q-8 -20 -10.5 -37q-2.5 -17 -2.5 -34v-148q0 -38 3.5 -52q3.5 -14 6.5 -19q11 -17 28.5 -21.5q17.5 -4.5 33.5 -5.5l20 -1v-35q-38 3 -66.5 4q-28.5 1 -52.5 1q-29 0 -53.5 -1q-24.5 -1 -51.5 -2l-85 -3zM485 905q18 19 34 29.5q16 10.5 33 10.5q18 0 29 -11q5 -4 9.5 -12q4.5 -8 4.5 -21q0 -21 -13.5 -32q-13.5 -11 -32.5 -21l-153 -81l-44 0z" />
<glyph unicode="&#222;" horiz-adv-x="605" d="M31 38h8q44 0 64.5 17.5q20.5 17.5 20.5 56.5v469q0 22 -3.5 36.5q-3.5 14.5 -13 23.5q-9.5 9 -27.5 14.5q-18 5.5 -48 9.5l0 34q50 0 88.5 -2q38.5 -2 65.5 -2q31 0 69.5 1.5q38.5 1.5 86.5 1.5l0 -35q-27 0 -44 -3q-17 -3 -27.5 -11.5q-10.5 -8.5 -14.5 -23q-4 -14.5 -4 -36.5v-43q33 3 54 3q63 0 114 -16.5q51 -16.5 87.5 -45q36.5 -28.5 56.5 -66.5q20 -38 20 -81q0 -39 -16 -72.5q-16 -33.5 -45 -58.5q-29 -25 -70 -39.5q-41 -14.5 -92 -14.5q-28 0 -55 6l0 33h13q124 0 124 144q0 81 -34.5 125q-34.5 44 -92.5 44q-34 0 -49 -19q-15 -19 -15 -61v-306q0 -24 2.5 -40q2.5 -16 11.5 -25.5q9 -9.5 27 -13.5q18 -4 49 -5l0 -35h-25q-37 0 -70.5 1q-33.5 1 -64.5 1q-19 0 -44.5 -1.5q-25.5 -1.5 -58.5 -1.5q-11 0 -23 0q-12 0 -25 1z" />
</font>
</defs>
</svg>
